<svg width="1260" height="841" viewBox="0 0 1260 841" fill="none" xmlns="http://www.w3.org/2000/svg">
<g filter="url(#filter0_g_36_195)">
<path d="M657.693 429.979C689.087 432.415 719.427 438.883 748.258 448.893L880 51L990 116L802.129 472.607C830.146 487.711 856.175 506.37 879.686 528.033L1123.85 246L1190 361L923.43 575.5C943.932 601.709 961.383 630.703 975.209 661.869L1247 551V671L998.438 729.205C1006.92 762.784 1011.44 768.581 1011.44 805L866.221 804.5L841 806L819.5 796.5L722 790.5L651.5 779L638.5 796L617.5 769.5L556 792L535.5 785L438.441 805H247.441C247.441 769.32 251.784 764.217 259.932 731.252L13 671V551L282.869 663.68C296.819 631.824 314.552 602.216 335.451 575.5L70 361L135.031 246L379.195 528.033C402.705 506.371 428.734 487.71 456.75 472.607L270 116L380 51L510.621 448.893C539.452 438.883 569.793 432.416 601.188 429.979L560 1H700L657.693 429.979Z" fill="url(#paint0_radial_36_195)"/>
</g>
<g filter="url(#filter1_g_36_195)">
<path d="M824 617H980C1002.5 732 1106 806 1106 806H848.5C848.5 806 942.5 764 974 628C923 773 843 803 843 803C843 803 822 784 787 776C752 768 728 749 728 749C728 749 793.5 705.5 824 617Z" fill="#C73911"/>
</g>
<g filter="url(#filter2_g_36_195)">
<path d="M130.944 796.497C133.374 802.077 139.774 806 139.774 806H419.074C425.494 799 433.5 798.5 449.5 793C465.5 787.5 497.5 760.5 524.304 747.517C526.344 746.337 526.694 744.637 525.294 742.617C524.324 741.217 523.944 739.827 523.804 738.207C523.614 735.857 522.074 734.457 519.954 733.797C518.604 733.377 517.154 733.317 515.654 733.087C513.984 730.037 510.874 729.657 507.984 729.107C507.664 728.337 507.404 727.757 507.184 727.157C505.154 721.637 501.114 717.827 496.384 714.687C493.964 713.077 491.214 712.317 488.234 712.217C483.444 712.057 479.004 712.967 475.154 715.947C473.404 717.297 471.684 717.827 469.384 717.247C466.094 716.417 463.444 717.777 461.664 720.697C461.004 721.767 460.684 723.117 458.934 723.437C458.344 722.927 457.554 722.387 456.934 721.707C455.754 720.417 454.754 718.957 453.524 717.707C450.974 715.127 447.894 714.177 444.314 715.007C443.084 715.297 441.854 715.577 440.834 715.817C440.294 715.617 439.944 715.577 439.704 715.387C436.834 713.127 433.854 713.147 430.774 714.907C430.494 715.067 430.194 715.177 429.924 715.347C428.324 716.387 426.824 715.957 425.494 714.897C424.634 714.207 423.854 713.357 423.234 712.447C420.384 708.257 416.764 705.457 411.494 705.117C409.174 704.967 407.284 703.747 405.874 701.827C405.404 701.187 404.894 700.547 404.294 700.037C398.584 695.157 393.864 694.927 389.004 698.137C386.814 699.577 384.804 700.247 382.314 699.427C381.724 699.237 381.044 699.237 380.414 699.247C375.634 699.327 373.024 701.457 371.984 706.137C371.714 707.377 371.544 708.627 371.314 709.947C370.294 710.557 369.394 711.237 368.394 711.677C362.784 714.147 359.884 718.187 360.614 724.527C360.764 725.777 360.604 727.097 360.344 728.337C359.414 732.787 356.454 734.457 352.184 733.027C351.434 732.767 350.704 732.417 349.964 732.127C344.334 729.937 339.314 730.897 334.914 735.037C333.754 736.127 332.694 737.347 331.464 738.357C329.804 739.727 328.314 739.877 326.714 738.457C324.604 736.587 322.344 735.967 319.644 736.427C318.894 736.557 318.084 736.337 317.294 736.277C316.034 734.477 314.894 732.747 313.644 731.097C310.544 726.997 306.414 725.507 301.394 726.437C300.134 726.667 298.874 726.907 297.664 727.307C295.724 727.947 293.984 727.987 292.244 726.657C289.484 724.557 286.454 724.467 283.144 725.427C278.414 726.787 276.774 726.057 273.774 721.937C272.734 720.517 271.794 719.027 270.714 717.637C267.994 714.147 264.444 712.277 259.964 712.297C258.844 712.307 257.714 712.177 256.614 712.337C254.314 712.667 252.244 712.347 250.174 711.187C247.024 709.417 243.584 709.717 240.394 710.877C237.384 711.977 234.694 713.767 233.654 717.197C232.994 719.367 231.384 720.487 229.184 721.087L229.068 721.118C227.433 721.561 225.538 722.074 224.454 723.217C220.284 727.627 218.584 726.367 214.314 724.377C209.914 722.327 205.564 722.777 201.744 725.977C200.664 726.887 199.654 727.997 198.924 729.197C197.754 731.117 196.264 732.267 193.964 732.447C191.514 732.637 189.864 734.077 188.754 736.187C188.454 736.747 188.214 737.337 187.934 737.917C186.834 740.197 185.114 741.317 182.514 740.757C181.884 740.617 181.254 740.457 180.624 740.437C170.834 740.117 166.274 744.027 164.394 751.387C164.084 752.617 163.644 753.827 163.164 755.007C162.364 756.977 160.774 757.987 158.724 758.167C157.655 758.254 156.557 758.124 155.486 757.998L155.394 757.987C153.484 757.747 151.594 757.387 149.694 757.177C142.964 756.427 138.474 759.877 137.784 766.557C137.594 768.417 137.134 769.977 135.864 771.297C133.414 773.837 132.484 776.697 134.024 780.047C134.794 781.727 134.294 783.147 133.264 784.497C132.784 785.137 132.294 785.767 131.854 786.437C129.734 789.627 129.434 793.027 130.944 796.497Z" fill="#21513D"/>
</g>
<g filter="url(#filter3_g_36_195)">
<path d="M304.91 673.23C309.66 674.33 313.88 676.47 317.93 679.08C318.96 679.75 319.85 680.85 321.61 680.33C322.58 679.07 322.63 677.25 323.26 675.67C323.91 674.05 324.55 672.39 325.43 670.89C326.31 669.39 327.4 667.97 328.56 666.67C329.84 665.25 331.21 663.88 332.73 662.73C334.12 661.68 335.77 660.99 337.26 660.08C338.65 659.23 340.38 658.92 342.15 657.26C340.71 657.09 339.96 656.87 339.25 656.94C331.53 657.67 325.38 661.36 320.35 667.11C319.43 668.16 318.51 669.22 317.55 670.32C312.5 668.7 307.8 666.33 302.53 667.16C297.39 667.97 292.24 668.85 288.39 673.27C290.1 673.01 291.82 672.79 293.53 672.49C297.38 671.83 301.12 672.34 304.9 673.22L304.91 673.23Z" fill="black"/>
<path d="M355.85 674.96C364.96 674.17 372.37 677.27 378.02 684.51C378.48 685.11 378.94 685.84 380.11 685.55C381.02 684.58 381.33 683.19 381.85 681.87C382.72 679.66 383.53 677.35 384.84 675.41C387.79 671.05 391.64 667.85 397.24 667.48C397.96 667.43 398.88 667.68 399.32 666.74C399.24 666.61 399.18 666.43 399.09 666.4C393.19 664.83 387.76 665.65 383 669.68C381.44 671 379.92 672.38 378.31 673.8C376.69 673.15 375.25 672.49 373.76 671.99C367.28 669.82 360.93 670.18 354.76 673.13C354.33 673.34 354.1 673.98 353.5 674.8C354.66 674.88 355.27 675.01 355.86 674.96H355.85Z" fill="black"/>
<path d="M422.08 650.72C428.24 651.02 433.03 653.75 436.36 659.05C437.26 660.49 437.67 662.58 439.54 663.05C441.61 663.57 442.45 661.41 443.78 660.4C447.49 657.58 451.5 655.91 456.23 656.42C458.13 656.63 460.01 656.99 461.91 657.2C462.61 657.28 463.51 657.61 463.85 656.56C463.7 656.23 463.65 655.85 463.44 655.7C457.14 651.46 450.5 650.58 443.46 653.72C442.48 654.16 441.44 654.48 440.77 654.73C437.99 652.7 435.64 650.77 433.08 649.2C430.44 647.58 427.48 646.95 424.33 647.51C421.41 648.03 418.29 647.98 415.56 651.28C418.32 651.03 420.21 650.64 422.08 650.73V650.72Z" fill="black"/>
</g>
<g filter="url(#filter4_g_36_195)">
<path fill-rule="evenodd" clip-rule="evenodd" d="M650.45 328.22C644.5 333.516 642.78 340.48 642.88 346.87C642.97 352.45 643.267 358 643.566 363.561L643.57 363.62C643.899 369.827 644.692 375.955 645.487 382.103L645.5 382.2C646.36 388.85 647.19 395.51 647.76 402.2C648.09 406.04 648.49 409.82 649.48 413.54C650.35 416.8 650.63 420.11 650.79 423.49C651.1 430.03 651.63 436.56 652.33 443.07C652.74 446.87 654 450.59 654.26 454.39C654.59 459.21 655.74 463.86 656.61 468.57C656.906 470.177 656.968 472.046 658.474 473.229C658.335 470.086 658.168 466.933 658.05 463.79C657.8 457.09 657.521 450.39 657.351 443.69C657.301 441.78 657.361 439.81 657.811 437.97C658.72 434.22 657.99 430.67 656.94 427.13C656.22 424.68 655.41 422.26 654.67 419.811L654.659 419.773C654.293 418.556 653.92 417.318 654.93 416.15C656.36 415.68 657.283 416.593 658.166 417.467L658.22 417.521C659.24 418.53 660.06 419.76 661.17 420.64C664.93 423.61 668.81 426.43 672.57 429.39C675.2 431.46 678.14 432.39 681.44 432.46C682.31 432.48 683.39 432.15 684.12 433.62C683.48 434.46 682.83 435.51 681.99 436.39C679.67 438.83 678.441 441.71 678.48 445.05C678.53 449.04 678.65 453.041 678.9 457.021C679.021 458.99 679.93 460.68 681.43 462.04C682.77 463.25 684.3 463.57 685.84 462.76C686.94 462.18 687.97 461.33 688.78 460.39C690.93 457.89 692.03 454.959 692.07 451.6C692.16 444.5 691.31 437.53 688.99 430.83C687.78 427.34 686 424.06 682.08 422.76C677.31 421.18 672.95 418.94 669.55 415.12C669.34 414.89 669.06 414.7 668.79 414.54C664.38 411.82 661.79 407.64 659.561 403.15C658.921 401.86 658.47 400.45 657.66 399.28C654.6 394.82 653.16 389.75 652.21 384.55C651.7 381.74 651.8 378.83 651.48 375.98C650.65 368.58 651.69 361.3 653.09 354.09C653.69 351.01 654.41 347.81 656.58 345.271C658.97 342.481 661.37 339.7 663.71 336.88C664.16 336.33 664.371 335.59 664.601 335.14L688.45 328.46C690.16 328.93 691.7 329.28 693.18 329.79C694.67 330.31 696.25 330.78 697.53 331.66C701.23 334.21 704.56 337.241 707.29 340.811C709.91 344.23 712.491 347.75 713.351 352.12C714.091 355.88 714.73 359.66 715.33 363.45C715.53 364.7 715.67 366.031 715.48 367.271C714.57 373.43 713.6 379.59 712.5 385.72C712.21 387.32 712.501 388.53 713.561 389.66C715.96 392.21 718.371 394.76 720.73 397.35C721.11 397.77 721.281 398.39 721.601 399.03C719.961 400 718.65 399.62 717.36 398.91C712.06 395.99 706.17 394.18 701.41 390.25C700.44 389.45 699.24 388.88 698.08 388.37C693.99 386.58 689.87 384.87 685.78 383.08C685.28 382.86 684.91 382.32 684.23 381.69H684.26C685.51 380.771 686.49 380.01 687.51 379.311C691.22 376.751 692.93 373.18 693.07 368.71C693.17 365.6 692.68 362.63 691.311 359.87C690.621 358.47 689.65 357.13 688.55 356.021C686.27 353.741 684.47 353.57 681.64 355.15C680.96 355.53 680.29 356.04 679.83 356.65C677.73 359.39 676.43 362.42 676.7 365.97C676.99 369.79 677.17 373.63 677.53 377.44C677.86 380.88 679.04 384.16 681.8 386.28C685.11 388.83 687.96 391.83 690.96 394.68C695.01 398.53 698.821 402.66 703.101 406.23C707.92 410.26 710.98 415.221 713.36 420.94C715.3 425.6 716.52 430.311 716.78 435.271C717.03 440.05 716.82 444.86 717.07 449.64C717.22 452.55 717.01 455.38 716.46 458.21C716.22 459.46 715.9 460.71 715.75 461.97C714.91 469.1 714.15 476.23 712.21 483.21C711.36 486.27 710.07 488.9 707.98 491.12C704.56 494.74 700.8 498.04 695.93 499.55C693.21 500.4 690.38 500.99 687.55 501.38C685.73 501.63 684.12 501.99 682.851 503.38C679.391 507.13 675.61 510.56 672.62 514.78C669.13 519.72 665 524.23 663.68 530.4C661.01 533.93 661.45 538.151 660.78 542.69C661.7 542.06 662.35 541.83 662.66 541.38C663.65 539.94 664.56 538.43 665.44 536.91C667.43 533.43 669.69 530.15 672.5 527.271C674.4 525.331 676.33 523.41 678.09 521.35C680.33 518.74 682.95 516.77 686.14 515.49C688.36 514.6 690.57 513.63 692.69 512.53C694.08 511.81 695.56 510.99 696.58 509.85C700.21 505.79 704.22 502.15 708.32 498.561C712.41 494.981 715.9 490.81 717.46 485.34C719.43 478.4 720.96 471.39 721.5 464.19C721.7 461.58 722.47 459.16 723.65 456.88C724.9 454.471 726.299 452.142 727.698 449.813L727.7 449.811C732.16 442.431 736.7 435.09 741.12 427.68C742.26 425.77 743.12 423.68 744.09 421.67C747.7 414.14 750.16 406.21 752.45 398.21C754.73 390.24 753.5 382.39 751.57 374.58L751.563 374.556L751.562 374.552C751.485 374.251 751.405 373.941 751.25 373.68C749.61 370.9 747.35 369.03 744 368.89C741.76 368.8 740.66 369.77 740.65 371.96C740.63 374.36 740.91 376.76 740.82 379.15C740.73 381.43 741.5 383.15 743.21 384.61C744.12 385.39 745.36 386.1 745.12 387.65C742.64 388.51 742.6 388.66 740.12 388C736.03 386.9 731.92 386.96 727.75 387.12C724.14 387.26 720.51 387.32 717 386.92C716.88 386.5 716.75 386.31 716.8 386.2C717.19 385.35 717.53 384.46 718.03 383.67C719.27 381.72 719.87 379.61 719.8 377.311C719.67 372.671 719.69 368.03 719.39 363.4C718.94 356.43 719.86 349.99 725.46 345.05C725.58 344.94 725.69 344.82 725.78 344.69C728.59 340.78 732.57 339 737.21 338.47C740.7 338.07 744.21 337.76 747.7 337.38C748.61 337.28 750.45 336.87 750.45 336.87L765 344.69L773.54 357.271C773.547 357.316 774.083 360.59 774.54 362.05C775.34 364.64 776.47 367.15 777.03 369.78C777.65 372.74 777.88 375.791 778.09 378.811C778.27 381.51 778.36 384.24 778.2 386.95C777.88 392.37 777.45 397.79 776.91 403.19C776.53 407 776.23 410.871 775.28 414.561C772.71 424.57 768.33 433.751 761.68 441.771C758.11 446.07 754.56 450.4 751.29 454.93C749.06 458.02 747.33 461.47 745.41 464.78C745.18 465.18 745.09 465.68 745.01 466.15C744.85 467.05 745.24 467.77 746.07 468.05C746.81 468.3 747.64 468.44 748.42 468.39C752.24 468.16 756.1 468.1 759.86 467.49C762.96 466.98 765.29 465.19 766.51 461.96C768.82 455.82 770.93 449.64 772.49 443.271C772.72 442.351 772.99 441.43 773.4 440.58C773.56 440.26 774.171 439.98 774.561 439.99C774.951 440 775.48 440.32 775.67 440.66C775.97 441.2 776.12 441.86 776.17 442.48C776.55 447.44 776.62 452.38 775.68 457.3C774.96 461.06 774.03 464.8 774.11 468.68C774.18 472.04 774.2 475.4 774.2 478.76C774.2 482.95 774.76 487.03 776.03 491.04C777.04 494.22 777.4 497.54 777.64 500.73C776.09 501.69 775.31 500.67 774.42 500.09C770.28 497.39 765.85 495.88 760.83 496.72C756.542 497.444 752.236 497.366 747.901 497.288L747.44 497.28C742.71 497.19 738.41 498.65 734.3 501.12C728.1 504.85 723.03 510.02 717.09 514.07L717.083 514.075C716.672 514.356 716.014 514.805 716.71 515.65C719.81 515.56 722.47 514.39 724.84 512.29C728.21 509.3 731.801 506.55 736.311 505.6C740.36 504.75 744.48 504.2 748.58 503.54C750.47 503.24 752.38 503.06 754.26 502.7C756.77 502.23 759.25 501.981 762.12 502.811C761.76 503.71 761.68 504.65 761.19 504.99C760.03 505.8 758.7 506.39 757.39 506.97C755.79 507.68 754.13 508.27 752.521 508.97L752.513 508.973C748.425 510.771 744.338 512.571 740.271 514.43C738.681 515.16 736.94 515.79 735.63 516.89C732.46 519.56 729.35 522.33 726.5 525.33C720.71 531.41 714.45 536.78 706.48 539.78C701.03 541.83 696.38 545.22 691.75 548.62C690.98 549.18 690.25 549.84 689.66 550.58C685.37 555.96 680.59 560.89 675.94 565.95C669.74 572.69 665.38 580.781 659.89 588.061C658.65 589.71 657.76 591.631 656.74 593.44C653.92 598.45 651.28 603.56 648.28 608.47C642.64 617.7 638.1 627.3 636.76 638.18C636.6 639.45 636.37 640.73 635.96 641.93C634.08 647.36 632.12 652.75 630.19 658.16C630.14 658.31 630.04 658.44 629.98 658.59C628.61 661.48 627.15 664.32 625.88 667.25C624.03 671.51 622.491 675.84 621.771 680.49C620.841 686.53 619.11 692.42 616.01 697.68C611.64 705.11 610.03 713.49 607.14 721.42C606.82 722.3 606.67 723.3 606.67 724.25C606.65 729.45 604.99 734.3 603.54 739.2C603.27 740.11 602.93 741.04 602.43 741.84C599.75 746.2 597.04 750.53 594.3 754.84C592.21 758.12 589.48 760.88 586.28 762.99C581.86 765.91 577.77 769.2 573.76 772.65C572.44 773.79 570.93 774.711 569.5 775.73C565.99 778.23 562.48 780.71 558.99 783.24C558.67 783.47 558.56 784 558.17 784.73L558.19 784.75C559.11 784.69 559.72 784.71 560.3 784.59C563.97 783.84 567.12 781.99 570.21 779.95C573.53 777.76 576.85 775.51 580.37 773.67C587.88 769.74 594.191 764.51 599.061 757.561C600.441 755.601 601.79 753.61 603.3 751.75C604.94 749.73 606.21 747.57 606.97 745.08C607.29 744.02 607.73 742.96 608.29 742C609.7 739.6 610.24 737.01 610.61 734.271C611.18 730.001 611.551 725.57 613.021 721.58L613.219 721.039L613.22 721.037C615.793 714.036 618.381 706.993 622.3 700.55C624.22 697.39 625.48 693.98 626.2 690.311C627.12 685.611 628.18 680.93 630.09 676.48C630.72 675.02 631.11 673.45 631.43 671.89C632.14 668.42 633.36 665.16 634.79 661.92C637.18 656.51 639.49 651.07 640.98 645.311L641.034 645.1C642.856 638.06 644.681 631.011 646.74 624.03C648.19 619.12 650.32 614.5 652.94 610.04C659.34 599.15 666.14 588.51 672.86 577.82C675.1 574.25 677.77 571.16 680.93 568.4C684.42 565.36 687.731 562.11 691.101 558.93C692.84 557.29 694.55 555.61 696.28 553.94C698.99 551.32 702.36 549.86 705.83 548.6C712.14 546.31 718.36 543.84 724.03 540.14C725.91 538.92 727.65 537.6 729.29 536.04C732.52 532.96 735.91 530.05 738.72 526.54C739.01 526.17 739.44 525.91 739.82 525.62C742.51 523.62 745.17 521.57 747.92 519.65C751.45 517.19 755.01 514.73 758.67 512.48C760.28 511.49 762.13 510.78 763.97 510.35C766.9 509.65 769.9 508.97 772.9 508.86C775.96 508.75 778.46 507.44 780.95 506.061C784.18 504.281 785.36 501.27 784.69 497.62C784.37 495.89 784.27 494.11 783.8 492.43C782.38 487.27 782.14 482.05 782.61 476.75C782.76 475.02 782.71 473.2 782.33 471.521C781.76 468.981 781.741 466.46 781.851 463.9C781.941 461.831 781.82 459.76 781.73 457.69C781.64 455.461 781.25 453.23 781.4 451.021C781.7 446.681 781.31 442.4 780.87 438.1C780.74 436.85 780.69 435.54 780.94 434.33C781.4 432.03 781.13 429.88 780.22 427.771C779.58 426.281 779.13 424.76 779.54 423.11C780.45 419.49 780.17 415.81 780.19 412.14C780.21 408.16 780.61 404.17 780.82 400.19C780.9 398.761 781.04 397.32 780.95 395.9C780.62 390.48 780.52 385.07 781.12 379.66C781.9 372.7 784.91 367.24 791.34 363.93C794.79 362.15 798.48 361.07 802.24 360.41C805.89 359.77 809.54 359.92 812.86 362.14C814.71 363.38 816.791 364.271 818.771 365.311C820.65 366.291 822.11 367.7 823.33 369.45C824.88 371.67 826.72 373.69 828.25 375.92L828.478 376.252L828.479 376.254C830.927 379.825 833.414 383.452 833.521 388.01C833.68 395.03 835.19 401.991 834.28 409.061C834.08 410.58 833.94 412.21 834.91 413.96C835.6 413.59 836.31 413.45 836.57 413.03C837.24 411.96 837.93 410.82 838.21 409.62C838.85 406.82 839.39 403.99 839.71 401.14C840.02 398.4 840.74 395.83 841.8 393.3C842.71 391.11 844.221 389.63 846.311 388.57C854.25 384.551 863.26 385.78 869.96 391.66C872.12 393.55 874.13 395.67 876.51 397.23C880.42 399.79 883.23 403.11 884.84 407.44C886.94 413.12 888.96 418.841 890.96 424.561C891.27 425.45 891.41 426.43 891.5 427.37C892.04 433.26 892.54 439.16 893.06 445.05C893.51 450.11 892.72 454.94 890.41 459.48C888.6 463.04 886.71 466.56 884.94 470.15C883.07 473.94 880.32 477.05 877.49 480.09C875.42 482.31 873.37 484.57 871.05 486.51C868.04 489.02 866.9 492.5 865.53 495.89C865.13 496.89 865.42 497.86 866.41 498.34C869.6 499.89 872.94 500.96 876.52 501.05C878.539 501.1 880.19 500.35 881.55 498.75C884.45 495.35 885.91 491.36 886.72 487.061C887.25 484.231 887.87 481.43 888.47 478.61C888.81 477.04 889.31 475.56 891.28 474.86C891.49 475.47 891.92 476.07 891.86 476.6C891.21 481.69 891.11 486.8 891.28 491.92C891.3 492.55 891.21 493.21 891.05 493.82C890.31 496.5 890.43 499.19 890.73 501.92C890.85 503.02 890.81 504.15 890.71 505.25C890.03 512.94 890.04 520.57 892.25 528.08C892.59 529.25 892.97 530.57 891.68 531.82C891.04 531.65 890.23 531.57 889.55 531.23C884.7 528.781 879.82 526.41 874.29 525.9C873.98 525.87 873.69 525.69 873.38 525.59C870.35 524.58 867.33 523.58 864.3 522.57C861 521.47 857.72 520.23 854.2 520.86C853.88 522.07 854.561 522.6 855.23 522.98C856.76 523.85 858.4 524.51 859.89 525.42C861.78 526.58 863.94 527.59 865.34 529.22C867.72 531.99 871.11 533.21 873.78 535.47C874.34 535.94 875.25 536.02 876.02 536.21C877.1 536.48 878.31 536.48 879.28 536.97C882.36 538.54 885.701 538.6 888.98 539.22C892.52 539.88 895.62 539.12 898.78 538C899.61 537.71 900.31 537.07 901.06 536.6C897.24 528.79 896.67 520.65 896.87 512.48C896.98 507.68 897.53 502.92 896.7 498.13C896.49 496.89 896.67 495.58 896.67 494.3C896.67 492.54 896.64 490.78 896.63 489.03C896.55 480.42 894.77 471.83 896.27 463.19C896.43 462.261 896.27 461.27 896.31 460.311C896.63 452.801 896.85 445.29 897.33 437.79C897.52 434.77 898.22 431.69 900.4 429.38C903.03 426.59 905.85 423.96 909.18 422C910.12 421.44 911.2 421.06 912.27 420.771C919.63 418.821 926.09 420.98 932.13 425.15C936.05 427.86 938.55 431.731 941.25 435.521C944.54 440.14 946.16 445.09 946.08 450.76C946.04 453.61 946.59 456.48 946.96 459.33C947.14 460.75 947.71 462.01 949.33 463.19V479C949.33 479 944.47 469.34 941.94 468.18C940.8 467.65 939.73 466.86 938.79 466.01C936.02 463.49 932.89 462.4 929.12 462.94C927.74 463.14 926.28 462.77 924.86 462.6C924.36 462.54 924.02 461.361 924.38 460.99C924.94 460.43 925.54 459.91 926.16 459.43C927.83 458.13 929.15 456.59 929.96 454.59C930.62 452.97 930.7 451.46 929.6 450.07C928.31 448.44 927.01 446.81 925.54 445.35C923.83 443.65 921.58 443.5 919.98 445.17C918.57 446.64 917.15 448.35 916.5 450.23C915.14 454.18 914.78 458.35 915.45 462.55C915.81 464.79 916.23 465.28 918.39 465.73C921.82 466.45 925.29 467.04 928.71 467.83C930.24 468.18 931.8 468.68 933.15 469.45C939.01 472.78 942.78 477.76 944.17 484.4C945.16 489.09 946 493.811 946.89 498.521C949.27 511.13 950.9 523.79 949.04 536.64C948.75 538.68 948.25 540.71 947.59 542.66C946.53 545.83 943.93 547.73 941.56 549.92C937.89 553.33 933.73 554.69 928.86 554.25C927.75 554.15 926.64 553.98 925.55 553.75C920.66 552.72 916.21 550.53 911.82 548.26C909.43 547.03 906.83 546.11 905.04 543.88C903.35 541.76 901.26 541.48 898.63 542.35C892.31 544.44 885.8 544.71 879.25 543.46C878.32 543.28 877.35 543.06 876.52 542.62C873.82 541.18 871.06 539.98 867.97 539.7C867.37 539.65 866.76 539.3 866.23 538.96C862.09 536.27 857.97 533.54 853.84 530.84C852.77 530.14 851.71 529.4 850.561 528.86C846.431 526.9 842.26 526.74 838.17 528.98C837.59 529.301 837.24 530.02 836.45 530.95C838.82 531.47 840.651 532.05 842.521 532.23C845.65 532.541 848.44 533.37 850.67 535.74C851.43 536.54 852.38 537.191 853.33 537.771C857.13 540.11 861.01 542.34 864.77 544.74C866.23 545.67 867.52 546.88 868.78 548.08C869.37 548.64 869.589 549.46 868.52 550.18C864.01 548.47 859.43 546.66 854.79 544.99C849.05 542.93 843.2 541.24 837.021 541.84C832.741 542.25 828.461 542.841 824.351 544.271C816.981 546.831 809.29 547.071 801.63 546.771C796.54 546.571 791.49 545.59 786.42 544.97C785.31 544.83 784.2 544.66 783.09 544.6C773.47 544.04 763.93 544.74 754.47 546.44C751.35 547 748.24 547.891 745.28 549.021C736.28 552.441 727.82 556.92 720.3 563.01C715.9 566.57 711.01 569.26 705.66 571C700.38 572.72 695.951 575.81 691.601 579.07C690.781 579.69 690.2 580.63 688.92 582.11C690.84 581.68 691.91 581.54 692.92 581.19C696.23 580.05 699.52 578.83 702.82 577.63C703.42 577.41 704.02 577.18 704.58 576.88C715.35 571.28 726.211 565.84 736.851 559.99C743.49 556.34 750.23 553.23 757.76 552.03C759.33 551.78 760.86 551.27 762.41 550.88C771.51 548.56 780.62 547.851 789.9 550.061C796.91 551.73 804.06 552.59 811.28 552.54C813.5 552.52 815.73 552.23 817.93 551.91C821.56 551.39 825.17 550.7 828.8 550.18C833.34 549.52 837.73 550.26 841.98 551.84C846.32 553.46 850.6 555.23 854.91 556.92C855.8 557.27 856.7 557.72 857.63 557.82C863.95 558.48 870.25 559.94 876.56 557.41C879.06 556.41 881.78 555.79 884.54 556.13C889.73 556.76 894.76 555.86 899.67 554.42C905.51 552.7 910.69 554.4 915.77 556.98C916.719 557.46 917.77 558.04 917.8 559.6C916.524 560.315 915.192 559.937 913.922 559.577L913.79 559.54C909.01 558.18 904.67 559.24 900.48 561.66C897.86 563.17 895.08 564.411 892.39 565.811C891.8 566.121 891.299 566.62 890.56 567.2C893.02 568.17 895.19 568.8 897.15 569.84C902.22 572.53 907.52 573.66 913.29 573.35C917.24 573.14 920.83 572.23 924.21 570.24C926.41 568.94 928.67 567.74 930.86 566.43C935.83 563.47 941.171 562.33 946.94 562.73C949.64 562.92 952.37 562.75 955.08 562.64C958.75 562.48 961.7 560.73 964.28 558.46V558.45C964.33 556.62 963.52 555.44 962.41 554.48L977.79 563.12C971.53 562.89 967.3 566.461 962.6 570.771L962.63 570.78C966.42 571.51 969.54 571.99 972.58 572.73C975.76 573.51 978.9 573.44 982.07 572.88C983.8 572.57 985.521 572.21 987.23 571.85C993.09 570.64 998.95 570.12 1004.67 572.35C1008.23 573.74 1011.69 575.38 1015.2 576.92C1016.8 577.62 1022.88 579.23 1024.5 579.88L1023.5 587.5L1018.5 584L1004.5 579C999.73 579.586 988.47 582.561 988.47 582.561L985.5 585L1001.5 595L992.29 601.89C992.276 601.866 990.645 599.236 989.51 598.15C983.31 592.25 976.3 587.54 968.43 584.19C964.89 582.68 961.17 581.75 957.26 581.74C950.71 581.72 944.16 581.62 937.61 581.59C937.21 581.59 936.81 581.91 936.48 582.05C936.23 583.09 937.02 583.281 937.51 583.521C940.23 584.861 942.97 586.17 945.74 587.42C948.39 588.62 950.76 590.22 952.88 592.2C958.84 597.77 965.93 600.66 974.02 601.28C975.689 601.41 977.47 601.43 978.87 603.18C978.26 603.5 977.91 603.81 977.53 603.86C974.21 604.28 970.87 604.58 967.55 605.07C963.33 605.69 959.25 605.26 955.4 603.45C952.22 601.95 949.05 600.4 946.04 598.6C941.21 595.71 936.05 593.63 930.81 591.68C929.32 591.12 927.77 590.66 926.37 589.91C923.83 588.55 921.14 588.24 918.46 588.91C908.93 591.3 899.74 589.31 890.59 586.89C886.11 585.71 881.7 584.3 877.24 583.04C876.69 582.89 876.07 583.021 875.46 583.021L875.32 583.08C875.37 583.67 875.29 584.05 875.44 584.28C879.23 590.22 884.64 594.12 891.41 595.66C895.41 596.57 899.65 596.67 903.81 595.95C905.69 595.62 907.61 595.46 909.52 595.32C912.569 595.09 915.53 595.56 918.52 596.28C922.759 597.3 926.78 598.74 930.47 601.05C932.17 602.11 934.06 603.04 935.15 605.43C934.201 605.51 933.57 605.74 933.07 605.58C931.56 605.09 930.08 604.47 928.61 603.85C925.33 602.46 921.97 601.58 918.36 601.91C917.42 602 916.4 601.98 915.5 601.71C911.78 600.59 908.2 601.41 904.64 602.35C902.566 602.897 900.547 603.647 898.53 604.396L898.28 604.49C891.88 606.87 885.75 606.27 879.8 603.01C875.99 600.93 872.51 598.46 869.44 595.35C864.73 590.57 859.86 585.94 855.06 581.25C854.49 580.69 853.97 580.04 853.311 579.62C846.571 575.29 839.7 571.18 831.62 569.89C830.09 569.65 828.46 569.95 826.89 570.08C820.84 570.6 814.81 571.25 808.76 571.66C804.74 571.93 800.74 571.31 796.96 569.96C791.05 567.85 785.35 568.57 779.64 570.63C774.68 572.42 769.7 574.13 764.73 575.86C761.24 577.07 757.63 577.65 753.96 578.1C746.46 579.04 739.23 580.89 732.851 585.22C729.721 587.34 726.17 588.31 722.47 588.54C717.92 588.82 713.69 589.981 709.64 592.061C707.67 593.07 705.52 593.75 703.41 594.46C696.72 596.74 691.21 600.76 686.69 606.09C683.88 609.41 680.7 612.25 677.33 614.98C673.1 618.4 669.23 622.28 666.17 626.8C664.58 629.15 663.57 631.91 662.42 634.54C661.02 637.76 659.66 641.011 658.46 644.311C657.59 646.7 657.01 649.191 656.33 651.65C656.16 652.26 656.19 652.93 656.01 653.54C653.84 660.93 654.33 668.36 655.29 675.88C656.41 684.61 658.28 693.18 660.24 701.74C660.99 705.01 661.57 708.33 661.99 711.66C662.42 715 662.26 718.32 661.53 721.67C659.75 729.79 658.51 738.001 657.99 746.311C657.73 750.4 658.36 754.24 660.39 757.87C661.71 760.24 662.8 762.74 663.91 765.22C665.1 767.89 666.85 770.111 668.8 772.271C673.7 777.71 679.43 781.89 686.21 784.66C688.43 785.57 690.67 786.17 692.88 786.2C693.48 785.1 693.1 784.63 692.49 784.34C689.15 782.78 686.13 780.7 683.05 778.7C680.5 777.03 678.161 775.17 675.851 773.18C672.481 770.28 669.941 766.88 668.311 762.83C666.761 758.99 664.44 755.46 663.58 751.34C663.32 750.1 662.98 748.82 663.05 747.58C663.37 741.84 663.821 736.12 665.061 730.47C666.19 725.32 666.84 720.07 667.7 714.87C668.202 711.808 667.328 708.852 666.499 706.051L666.46 705.92C664.18 698.23 663.101 690.3 661.311 682.51C660.491 678.93 659.68 675.33 659.21 671.7C658.63 667.23 658.981 662.77 660.021 658.36C660.6 655.87 660.99 653.34 661.49 650.83C662.27 646.89 663.33 643.05 665.28 639.51C667.52 635.45 669.591 631.28 672.061 627.37C674.721 623.15 678.43 619.77 682.39 616.8C685.22 614.68 687.811 612.37 690.271 609.84C694.64 605.35 699.451 601.43 705.44 599.18C707.98 598.23 710.39 596.94 712.92 595.96C714.54 595.33 716.26 594.93 717.95 594.51C720.58 593.85 723.39 593.64 725.83 592.57C730.29 590.62 734.97 589.75 739.69 589C742.56 588.55 745.34 588 747.89 586.53C749.5 585.61 751.26 585.56 753.021 585.76C757.06 586.23 761.05 585.55 764.89 584.66C767.798 583.981 770.551 582.422 773.2 580.923L773.561 580.72C775.76 579.47 777.69 577.74 779.74 576.21L779.779 576.181C780.806 575.42 781.83 574.662 783.43 575.561C783.43 577.17 782.36 578.43 781.47 579.6C780.23 581.24 778.73 582.72 777.19 584.09C775.4 585.68 773.56 587.16 772.26 589.26C771.54 590.42 770.27 591.31 769.11 592.11C767.18 593.43 765.14 594.59 763.04 595.88C763.48 596.21 763.7 596.52 763.91 596.51C766.14 596.42 768.45 596.59 770.59 596.07C775.28 594.92 779.71 593.1 783.15 589.48C784.03 588.55 785 587.71 785.87 586.78C789.3 583.05 793.57 580.59 798.17 578.67C799.17 578.25 800.39 577.88 801.42 578.04C805.52 578.7 809.75 578.01 813.771 579.34C816.31 580.18 818.75 579.91 821.26 579.01C822.56 578.54 824.11 578.34 825.47 578.54C828.82 579.01 832.15 579.1 835.51 578.94C836.1 578.91 836.69 579.14 837.24 579.24C837.33 580.44 836.63 580.85 835.82 580.98C833.771 581.31 831.72 581.62 829.65 581.8C827.701 581.96 825.89 582.45 824.16 583.35C819.71 585.67 815.05 587.21 809.93 586.97C808.48 586.9 807.13 587.26 805.44 588.54C808.914 588.968 811.88 589.334 814.822 589.695L815.271 589.75C816.38 589.89 817.491 590.08 818.601 590.13C822.41 590.28 825.67 591.481 828.54 594.19C830.61 596.15 833.27 597.44 836.09 598.23C840.54 599.47 844.661 601.79 849.311 602.43C850.56 602.6 851.82 603 853.07 602.97C857.72 602.84 861.7 604.87 865.74 606.72C865.83 606.76 865.84 606.99 865.89 607.16C865.8 608.09 865.01 607.94 864.46 607.93C860.8 607.88 857.16 608.211 853.47 608.061C850.19 607.921 846.87 609 843.55 609.49C840.87 609.89 838.19 610.281 835.5 610.561C832.24 610.901 829.13 610.12 826.15 608.88C823.36 607.72 820.52 606.61 817.87 605.16C812.92 602.47 807.79 602.3 802.54 603.7C796.17 605.39 790.24 608.18 784.66 611.66C781.41 613.69 778.28 615.94 774.65 617.28C772.561 618.05 770.45 618.94 768.271 619.22C760.651 620.18 753 620.74 745.351 619.311C745.041 619.251 744.69 619.29 744.4 619.17C739.25 617.03 733.7 617.62 728.36 616.811C725.751 616.411 723.27 617.08 720.851 617.92C718.141 618.85 715.51 620.07 712.76 620.87C707.23 622.47 703.57 626.46 699.89 630.49C698.06 632.49 696.3 634.571 694.38 636.48C691.35 639.49 689.58 643.25 687.97 647.08C685.17 653.73 683.02 660.55 682.53 667.85C682.21 672.58 682.73 677.14 684.37 681.51C687.43 689.62 689.68 697.92 690.96 706.49C692.68 717.95 697.8 727.59 705.91 735.88C711.18 741.27 717 746.01 722.43 751.2C723.92 752.63 725.62 753.89 727.36 755C733.82 759.13 740.351 763.17 746.851 767.24C747.26 767.49 747.651 767.82 748.101 767.95C755.74 770.25 762.76 774.26 770.63 776L782.336 780.271C788.646 781.891 794.486 785.341 800.886 786.191C804.176 786.622 825.015 793.161 819.596 798.631C818.606 799.631 817.135 799.941 815.745 800.111C802.495 801.681 789.565 796.371 776.115 798.081C761.185 799.981 745.885 798.941 731.365 795.001L731.095 794.927C728.838 794.308 726.503 793.668 724.205 794.081C721.815 794.511 719.516 796.531 719.686 798.951C719.886 801.791 725.045 805.931 726.955 807.801C730.655 811.421 736.366 813.111 740.766 815.891C742.666 817.091 744.525 819.951 742.655 821.201C742.175 821.521 741.576 821.591 741.006 821.641C735.296 822.081 729.475 820.941 724.355 818.371C721.806 817.091 719.415 815.461 716.745 814.441C711.375 812.392 705.576 812.991 699.976 812.261C693.876 811.461 688.936 808.271 683.296 806.091C679.836 804.751 676.115 804.191 672.646 802.881C669.195 801.571 665.705 798.941 663.315 796.101C660.686 792.971 660.326 788.391 657.466 785.501C655.906 783.921 653.036 783.311 651.516 784.941C650.616 785.901 650.445 787.331 650.325 788.641L650.229 789.684C649.841 793.897 649.453 798.119 649.056 802.331C648.676 806.491 647.455 808.511 643.355 808.761C641.776 808.861 639.966 809.122 639.086 810.441C638.546 811.251 638.495 812.271 638.455 813.241C638.335 816.451 638.216 819.711 638.966 822.841C640.146 827.711 643.336 832.971 640.756 837.261C637.826 838.421 634.946 835.611 633.046 833.101L619.485 815.281C617.285 812.381 615.036 809.401 614.006 805.911C612.036 799.241 614.796 792.491 615.716 785.901C616.296 781.791 616.745 771.961 609.785 776.561C605.055 779.691 600.086 782.441 594.926 784.781C581.556 790.851 568.666 797.561 555.676 804.451C548.056 808.491 540.156 810.321 532.056 812.771C529.476 813.551 527.435 815.471 525.075 816.771C521.995 818.46 518.326 819.051 514.876 818.411C514.016 814.491 517.326 811.011 520.346 808.361C524.356 804.831 528.376 801.301 532.386 797.771C534.446 795.961 536.695 793.19 535.325 790.811C534.394 789.192 524.395 795.061 523.146 795.511C519.916 796.691 517.456 795.971 514.176 796.041C504.966 796.221 495.116 801.471 486.176 803.691C471.946 807.221 457.236 809.231 442.556 808.641C440.116 808.541 424.836 808.931 429.525 803.241C430.985 801.471 436.105 801.791 438.186 801.431C442.005 800.761 445.775 799.751 449.445 798.481L449.296 798.561C451.526 797.791 453.686 796.94 455.695 796.021C465.054 791.775 474.681 782.943 487.5 775.73C496.759 770.521 501.43 766.34 509.26 761.42C515.21 757.68 521.05 753.77 526.93 749.92C528.67 748.78 530.38 747.61 532.07 746.41C533.24 745.58 534.45 744.78 535.51 743.82C541.34 738.54 546.38 732.57 550.91 726.15C554.41 721.18 557.861 716.19 560.521 710.71C561.14 709.42 561.9 708.13 562.19 706.76C563.35 701.29 564.26 695.78 565.44 690.311C566.63 684.781 566.78 679.2 566.61 673.6C566.48 669.29 566.23 664.99 565.13 660.771C563.87 655.951 562.14 651.26 559.69 647C556.42 641.31 553.79 635.31 550.64 629.58C549.56 627.62 548.46 625.67 547.16 623.86C546.34 622.72 545.3 621.53 544.08 620.92C539.51 618.65 535.16 615.93 530.2 614.47C526.09 613.26 522.039 613.031 517.939 614.311C514.74 615.3 511.55 616.32 508.34 617.29C506.51 617.84 504.68 618.5 502.8 618.76C498.59 619.34 494.75 620.86 491.28 623.22C488.92 624.82 486.4 625.56 483.64 625.66C481.09 625.76 478.51 625.92 475.97 625.73C471.96 625.43 468.11 624.48 464.67 622.19C460.15 619.18 455.53 616.32 451 613.32C446.3 610.21 441.23 609.05 435.58 609.2C430.36 609.34 424.99 609.57 419.97 607.58C417.62 606.65 415.449 607.15 413.52 608.24C408.25 611.22 402.599 613.38 397.52 616.85C392.25 620.44 386.11 622.5 379.45 622.18C375.79 622 372.09 622.31 368.61 620.78C364.021 620.76 359.46 619.4 354.811 620.8C352.011 621.65 349.14 621.16 345.97 619.96C346.82 619.09 347.34 618.09 348.07 617.89C350.87 617.11 353.33 615.62 355.96 614.49C359.63 612.92 363.43 611.68 367.58 612.54C368.8 612.79 370.13 612.65 371.39 612.54C373.45 612.37 375.51 612.11 377.57 611.83C380.12 611.49 382.55 610.85 384.729 609.34C387.079 607.7 389.63 606.33 391.96 604.66C393.5 603.55 395.09 602.31 396.17 600.78C398.36 597.66 401.58 595.83 404.479 593.62C405.409 592.91 406.85 592.67 408.08 592.6C412.07 592.39 416.06 592.22 419.97 591.25C420.74 591.06 421.56 591.02 422.35 591.05C427.29 591.25 432.24 591.46 437.17 591.74C438.42 591.81 439.66 592.15 441.149 592.41C441.169 590.85 440.01 590.15 439.25 589.35C436.24 586.17 432.59 584.51 428.12 584.93L427.938 584.947L427.926 584.948C426.24 585.112 424.546 585.277 422.86 585.21C420.48 585.12 418.07 584.97 415.74 584.51C412.99 583.97 410.31 583.07 407.33 582.25C407.98 581.86 408.47 581.35 409.01 581.29C410.27 581.13 411.58 581.02 412.82 581.2C418.48 582 423.97 581.24 429.36 579.53C432.282 578.596 435.194 578.728 438.253 578.867L438.31 578.87C443.989 579.11 448.81 581.12 453.479 584.07C456.629 586.06 459.35 588.37 461.64 591.34C464.27 594.75 467.04 598.07 470.01 601.18C471.63 602.88 473.78 604.09 475.729 605.46C476.229 605.81 476.89 606.11 477.49 606.13C481.32 606.29 485.15 606.37 488.88 605.15C492.06 604.11 495.28 603.2 498.439 602.12C499.409 601.79 500.27 601.1 501.01 600.67C501.04 599.27 500.21 598.91 499.53 598.65C496.24 597.39 492.92 596.23 489.31 596.46C489.15 596.47 488.99 596.461 488.83 596.48C482.96 597.57 479.07 594.33 475.82 590.19C473.29 586.97 471.14 583.45 468.81 580.04C469.21 579.11 470.09 579.2 470.82 579.34C473.07 579.77 474.94 580.98 476.729 582.37C478.273 583.565 479.879 584.69 481.48 585.811L481.518 585.836L481.78 586.021C483.35 587.12 484.97 587.25 486.76 586.43C488.05 585.83 489.46 585.47 490.82 585.01C494.64 583.69 498.4 583.94 501.97 585.76C504.99 587.29 508.05 588.47 511.45 588.93C512.79 589.11 514.06 590.06 515.29 590.78C517.11 591.84 518.991 592.411 521.101 592.771C529.43 594.19 537.841 595.42 545.36 599.76C546.99 600.7 548.92 601.18 550.76 601.67C555.37 602.88 559.32 605.02 562.41 608.78C563.92 610.62 565.85 612.11 567.63 613.72C569.91 615.78 571.73 618.14 573.09 620.93C574.49 623.8 576.3 626.46 577.78 629.29C579.55 632.69 581.16 636.16 582.83 639.61C583.22 640.41 583.56 641.231 584.05 642.311C585.287 640.964 585.081 639.696 584.882 638.469L584.88 638.46C584.11 633.86 582.71 629.42 580.68 625.25C578.65 621.1 576.15 617.18 573.95 613.11C572.48 610.39 570.53 608.09 568.24 606.07C565.54 603.69 563.7 600.75 562.32 597.46C560.16 592.3 557.98 587.15 555.66 582.061C554.94 580.491 553.8 579.11 552.76 577.7C551.81 576.42 550.61 575.31 549.771 573.96C544.831 566.06 537.94 560.2 530.32 555.1C527.27 553.06 524.1 551.2 521.04 549.17C519.45 548.12 517.83 547.03 516.46 545.71C512.31 541.73 508.18 537.7 505.1 532.78C502.65 528.86 499.009 526.24 495.189 523.89C492.83 522.43 490.09 522.05 487.32 522.28C482.99 522.65 478.69 522.43 474.46 521.46C471.67 520.82 468.89 520.07 466.16 519.2C463.12 518.23 460.16 517.01 457.13 516.01C455.93 515.61 454.65 515.39 453.38 515.25C449.73 514.85 446.08 514.51 442.42 514.19C441.64 514.12 440.81 514.15 440.04 514.33C433.14 515.95 427.13 513.44 421.31 510.22C419.5 509.22 417.81 508 416.11 506.82C415.61 506.47 415.15 505.96 414.87 505.42C414.68 505.06 414.69 504.42 414.899 504.08C415.099 503.76 415.7 503.431 416.06 503.49C418.569 503.94 421.07 504.481 423.56 505.021C426.62 505.691 429.47 505.54 432.38 504.04C434.46 502.97 436.91 502.6 439.21 501.97C441.59 501.31 442.17 500.77 442.34 498.4C442.47 496.65 442.43 494.88 442.45 493.12C442.49 490.09 442.23 487.01 442.63 484.03C443.65 476.38 443.19 468.7 443.53 461.04C443.55 460.56 443.6 460.07 443.52 459.6C442.07 451.66 443.76 443.63 442.77 435.67C442.55 433.94 442.54 432.11 442.84 430.4C443.49 426.69 442.99 423.07 442.47 419.43C441.92 415.61 441.88 411.81 442.08 407.95C442.4 401.73 442.21 395.5 441.46 389.32C438.03 389.34 434.58 391.42 433.08 394.74C431.77 397.64 430.84 400.71 429.84 403.74C429.19 405.71 428.75 407.75 428.11 409.72C427.94 410.26 427.42 410.68 426.93 411.33C423.55 407.83 425.49 402.84 422.81 398.84C420.76 406.43 418.9 413.51 416.93 420.57C415.73 424.88 414.4 429.15 413.06 433.42C411.39 438.75 409.32 443.98 408.51 449.55C408.23 451.44 407.92 453.36 407.93 455.26C407.98 463.74 408.17 472.21 408.24 480.68C408.27 484.04 407.93 487.41 408.11 490.75C408.36 495.53 408.94 500.3 409.38 505.07C409.53 506.66 409.69 508.24 409.85 509.89C411.47 511.74 413.59 512.81 415.74 513.88C418.6 515.3 421.51 516.64 424.189 518.36C429.469 521.74 435.37 522.86 441.399 523.64C442.029 523.72 442.71 523.74 443.31 523.58C447.54 522.39 451.87 522.91 456.16 522.87C460.85 522.83 465.3 524.2 469.62 525.93C471.84 526.82 474 527.881 476.22 528.771C477.55 529.311 478.92 529.921 480.32 530.061C483.92 530.421 487.2 531.43 489.89 533.95C490 534.06 490.16 534.13 490.31 534.18C496.9 536.31 501.63 541.19 506.88 545.33C509.89 547.7 512.8 550.18 515.72 552.65C517.99 554.57 520.87 555.87 523.65 557.03C526.97 558.41 529.821 560.36 532.351 562.85C535.65 566.1 538.98 569.33 542.21 572.64C543.2 573.66 544.07 574.85 544.73 576.11C547.32 581.09 550.46 585.7 553.61 590.32C554.77 592.02 555.68 593.9 556.5 595.79C556.84 596.57 556.63 597.59 556.69 598.97C555.26 598.51 554.22 598.29 553.29 597.85C546.66 594.7 540.05 591.49 533.14 588.96C531.03 588.19 528.94 587.57 526.65 587.44C522.301 587.19 518.13 586.25 514.49 583.57C513.23 582.64 511.64 582.15 510.18 581.53C507.54 580.4 504.949 579.141 502.229 578.271C497.85 576.881 493.51 575.24 488.7 576.91C486.56 577.65 484.1 577.88 481.49 576.94C481.89 576.361 482.06 575.86 482.39 575.7C484.95 574.4 487.6 573.27 490.12 571.89C492.5 570.58 494.87 570.33 497.51 570.89C500.44 571.52 503.42 571.96 507.17 571.67C505.03 570.16 503.15 569.97 501.37 569.521C498.91 568.891 496.45 568.22 493.99 567.59C492.29 567.16 490.6 566.56 488.87 566.43C483.16 565.99 477.439 565.4 471.729 566.76C462.69 568.92 453.54 570.21 444.21 570.11C441.81 570.08 439.48 570.52 437.26 571.64C434.81 572.88 432.13 573.36 429.36 573.36C426.48 573.36 423.609 573.4 420.729 573.43C420.09 573.43 419.42 573.341 418.82 573.48C410.61 575.43 402.23 576.81 395.33 582.39C392.089 585.017 388.46 587.191 384.866 589.343L384.57 589.521C383.1 590.4 381.32 591 379.62 591.19C374.77 591.72 370.95 594.26 367.2 597.021C366.04 597.87 364.83 598.69 363.83 599.71C360.68 602.92 356.66 604.45 352.49 605.63C351.13 606.01 349.66 606.03 348.24 606.14C344.74 606.42 341.23 606.58 337.73 606.95C333.34 607.41 329.45 608.95 326.14 612.1C324.2 613.94 321.74 615.26 319.43 616.68C317.1 618.11 314.94 619.7 313.14 621.8C310.67 624.68 307.55 626.41 303.79 627.19C301.85 627.59 300.05 628.67 298.2 629.44C298.53 626.691 299.21 625.07 301.43 624.37C307.05 622.6 310.12 618.03 313.54 613.85C316.06 610.77 317.95 607.17 321.51 605.32C321.24 603.38 319.87 603.36 318.93 603.24C312.12 602.38 305.32 601.36 298.45 602.92C295.27 603.64 292.381 604.73 289.851 606.87C287.821 608.59 285.9 610.54 283.25 611.49C283.15 611.07 282.961 610.72 283.061 610.6C285.08 608.14 287.09 605.66 289.2 603.28C289.93 602.46 290.86 601.77 291.82 601.23C297.28 598.17 303.14 596.08 309.15 594.45C310.96 593.96 312.93 593.81 314.82 593.86C319.13 593.98 323.431 594.28 327.73 594.61C330.45 594.82 333.14 594.96 335.79 594.29C335.96 593.14 335.2 592.86 334.45 592.59C331.29 591.48 328.09 590.48 324.98 589.24C322.32 588.18 319.76 586.86 317.17 585.62C313.38 583.79 309.57 582.36 305.2 583.51C302.75 584.16 300.14 584.2 297.7 584.85C296.04 585.29 294.36 586.09 293.01 587.15C290.83 588.86 288.5 590.1 285.91 591.04C278.647 593.68 266 602.92 266 602.92L262.5 598L279.058 582.968L276 578.5L265.5 578.78L270.27 569.66C270.27 569.66 280.35 571.09 283.8 572.38C287.91 573.92 291.92 573.45 295.99 570.94L296 570.95C294.74 568.7 292.96 567.86 291.24 567.15C287.31 565.51 284.16 563.06 281.48 559.7C279.941 557.77 274.091 554.21 274.091 554.21L278 543.04C280.24 544.38 283.66 546.59 285.83 547.51C288.69 548.73 291.03 550.56 293.33 552.57C295.13 554.15 296.961 555.73 298.98 556.98C304.27 560.25 309.19 564.11 314.84 566.8C315.56 567.14 316.25 567.57 316.89 568.04C324.07 573.39 332.42 576.11 340.8 578.78C341.64 579.05 342.58 578.98 344.66 579.17C342.14 577.46 340.56 576.45 339.05 575.34C337.52 574.2 335.9 573.11 334.63 571.72C332.55 569.44 330.21 567.59 327.44 566.24C326.181 565.63 325.01 564.85 323.65 564.061L323.68 564.04C324.87 562.38 326.35 562.72 327.64 563.19C329.73 563.94 331.761 564.87 333.771 565.82C342.2 569.81 350.85 572.97 360.32 573.25C364.16 574.51 367.49 572.75 370.92 571.51C373.46 570.59 375.96 569.33 378.59 568.91C384.58 567.97 389.84 565.33 394.95 562.39C399.12 559.99 403.43 557.95 407.86 556.12C410.71 554.95 413.63 554.44 416.71 554.32C421.16 554.14 425.69 554.39 430.02 553.03C431.92 552.44 433.73 552.38 435.67 552.74C437.06 553 438.53 552.99 439.939 552.86C442.629 552.62 445.31 552.1 448 551.91C449.847 551.779 451.483 551.296 453.122 550.494L453.794 550.158C455.52 549.316 457.389 548.752 459.18 548.021C459.57 547.861 459.88 547.51 460.58 546.98C458.29 546.61 456.43 546.44 454.59 546.98C450.88 548.07 447.08 548.27 443.26 548.67C436.54 549.37 429.879 549.36 423.189 548.63C421.46 548.44 419.63 548.31 417.96 548.68C415.59 549.19 413.25 549.45 410.84 549.35C409.9 549.31 408.94 549.54 408 549.69C403.32 550.46 399.11 552.57 395.41 555.3C390.35 559.04 384.78 561.79 379.25 564.62C376.72 565.91 373.94 566.98 371.16 567.44C366.14 568.27 361.08 568.41 355.97 567.42C350.26 566.31 344.74 564.99 340.15 561.15C339.78 560.84 339.37 560.58 338.96 560.34C332.56 556.55 325.84 554.56 318.38 556.63C315.87 557.33 313.23 557.5 310.79 556.78C307.45 555.79 304.01 554.89 301.04 552.91C300.55 552.59 299.83 552.38 300.04 551.28C301.4 551.38 302.8 551.51 304.19 551.59C309.81 551.91 314.17 548.55 315.04 543.04C315.54 539.9 315.96 536.71 316.07 533.54C316.25 528.59 316.14 523.63 316.17 518.67C316.19 515.16 316.36 511.64 316.26 508.13C316 499.51 315.6 490.89 315.3 482.271C315.08 476.061 314.89 469.85 313.97 463.69C313.5 460.541 312.35 457.6 309.91 455.82C307.44 454.024 299.106 453.547 299.106 453.547L299.05 445.48L312.9 442.54L303.33 438.271L316.72 432C316.72 432 320.51 433.141 321.9 433.561C324.15 432.491 326.08 431.29 328.18 430.65C330.25 430.01 331.97 428.97 333.5 427.561C335.62 425.621 337.56 423.48 339.73 421.6C343.52 418.32 347.921 416.1 352.73 414.71C353.18 414.58 353.671 414.55 354.15 414.53C359.59 414.281 368.98 420.751 370.18 425.811C370.33 426.43 370.57 427.04 370.65 427.67C370.88 429.41 371.22 431.16 371.2 432.9C371.13 438.33 371.02 443.771 370.72 449.19C370.55 452.21 369.8 455.19 369.58 458.2C369.15 464.1 368.77 470.01 368.65 475.92C368.56 480.46 367.69 484.83 366.311 489.09C364.981 493.21 363.08 497.21 360.04 500.32C354.19 506.3 347.69 511.43 339.521 514.021C338.481 514.35 337.51 514.9 336.271 515.45H336.26C335.92 518.27 335.37 520.651 335.4 523.021C335.48 529.25 335.8 535.471 336.07 541.69C336.1 542.46 336.17 543.53 336.65 543.93C339.09 545.93 340.96 548.65 344.16 549.73C348.1 551.07 352.05 552.32 356.18 552.87C360.64 553.46 365.11 553.56 369.46 552.12C370.24 551.86 371.34 551.84 371.45 550.51C365.87 547.78 361.131 544.14 358.021 538.63C356.371 535.71 354.46 532.95 352.89 530C351.5 527.4 349.7 525.24 347.47 523.38C346.66 522.7 345.98 521.85 344.79 520.61C346.05 520.61 346.74 520.41 347.21 520.64C350.77 522.43 354.39 524.12 356.96 527.39C358.44 529.27 360.071 531.05 361.811 532.69C364.27 535.01 366.92 537.05 370.55 537.18C371.33 537.21 372.1 537.56 372.88 537.71C380.05 539.13 386.88 538.17 393.18 534.41C395.57 532.98 398.05 531.77 400.74 531.58C406.76 531.17 412.85 530.3 418.75 532.61C419.67 532.97 420.78 532.84 421.8 532.94C419.69 530.26 417.339 528.09 414.149 527.51C410.88 526.92 407.57 526.181 404.17 526.811C402.61 527.101 400.989 527.17 399.399 527.14C396.45 527.09 393.72 527.81 391.09 529.11C386.58 531.34 381.9 531.55 377.13 530.061C375.15 529.441 373.15 528.88 371.18 528.22C370.28 527.92 369.38 527.54 368.58 527.05C367.83 526.59 367.6 525.84 368.26 524.84C369.53 524.69 370.941 524.44 372.351 524.39C375.19 524.29 377.61 523.3 379.689 521.36C382.139 519.07 384.56 516.75 387.14 514.62C388.35 513.62 389.07 512.51 389.27 511.04C389.52 509.15 389.79 507.24 389.8 505.33C389.83 501.33 389.99 497.3 389.56 493.35C388.89 487.16 388.32 480.97 388.1 474.75C388 471.88 387.699 469.01 387.729 466.14C387.849 455.04 387.86 456.19 383.07 446.97C379.97 440.99 376.83 435.1 375.12 428.55C374.96 427.94 374.65 427.36 374.37 426.79C372.68 423.35 370.96 419.93 369.29 416.48C368.71 415.281 367.9 414.4 366.69 413.79C364.981 412.93 352 409.72 352 409.72L363.5 402.5C363.5 402.5 367.5 404.02 368.25 404.6C371.81 407.34 375.36 406.86 378.92 404.66C379.6 404.24 380.29 403.83 380.92 403.35C383.59 401.32 386.32 399.39 388.46 396.72C389.41 395.54 390.41 394.15 392.47 394.21C392.47 394.86 392.639 395.531 392.439 396.061C391.65 398.15 390.83 400.24 389.86 402.25C388.51 405.05 388.46 407.77 389.85 410.54C391.71 414.26 393.53 417.99 395.43 421.68C395.66 422.12 396.26 422.36 396.89 422.84C398.18 419.68 399.26 416.86 400.479 414.09C402.619 409.23 404.16 404.24 404.8 398.94C405.16 395.95 404.369 393.62 402.149 391.66C401.47 391.07 400.909 390.35 400.27 389.66C402.14 387.7 404.32 387.42 406.57 387.15C409.41 386.81 412.32 386.69 414.89 385.17C417.22 383.79 419.58 382.44 421.87 380.99C422.3 380.72 422.48 380.05 423.36 378.62L431.06 373.54L431.08 373.561C433.08 372.771 434.26 372.31 435.43 371.84C438.84 370.49 442.21 369.02 445.67 367.82C451.24 365.88 456.92 364.23 462.47 362.26C467.87 360.35 473.18 358.18 478.52 356.11C478.61 356.07 478.64 355.86 478.83 355.43C478.35 354.84 477.78 354.11 477.17 353.41C476.62 352.78 476.2 352.15 476.84 351.1C478.88 350.22 481.01 350.75 483.18 351.34C484.86 351.79 486.68 352.58 488.28 352.3C494.25 351.27 500.32 350.74 506.11 348.771C510.39 347.311 514.2 344.97 517.93 342.54C520.62 340.78 521.13 339.14 520.561 335.91L532.883 334.353C532.71 334.386 532.564 334.779 532.36 335.05C532.99 336.6 534.27 337.65 535.71 338.23C540.66 340.22 545.71 341.63 550.99 339.24C553.46 338.12 555.94 337.02 558.45 335.99C559.56 335.54 560.65 335.55 561.07 337.22C560.24 338.72 558.87 339.79 557.561 340.97C556.271 342.13 555 343.39 554.07 344.83C551.05 349.52 551.98 354.51 554.07 359.05C556.2 363.7 558.18 368.39 559.93 373.19C560.64 375.13 561.72 376.931 562.68 378.771C562.79 378.98 563.19 379.04 563.54 379.21C564.76 378.58 565.06 377.33 565.49 376.16C566.96 372.11 568.35 368.02 569.88 363.99C570.61 362.07 571.421 360.12 572.521 358.4C574.72 354.971 574.65 351.1 574.91 347.311C574.98 346.321 574.32 345.16 573.72 344.26C572.49 342.4 571.06 340.67 569.75 338.86C569.11 337.98 568.55 337.03 567.53 335.48L567.51 335.45C568.97 335.12 569.71 334.78 570.43 334.84C571.53 334.93 572.66 335.19 573.69 335.58C577.07 336.87 580.53 336.9 584.08 336.71C588.993 336.446 593.59 334.984 598.208 333.516L598.51 333.42C600.63 332.75 602.8 332.21 604.97 331.71C605.76 331.53 606.75 331.71 606.94 332.6C607.09 333.27 606.87 334.211 606.46 334.771C605.81 335.65 604.9 336.35 604.05 337.07C599.72 340.74 596.18 344.93 594.65 350.59C593.65 354.29 592.55 357.98 591.14 361.53C589.01 366.9 587.4 372.401 586.15 378.021C585.84 379.42 585.43 380.811 584.93 382.15C582.91 387.53 580.92 392.93 578.75 398.25C577.24 401.96 576.92 405.46 578.42 409.34C580.14 413.79 581.45 418.44 582.55 423.09C583.47 426.97 584.33 430.86 585.57 434.65C586.02 436.01 586.36 437.41 586.64 438.82C587.99 445.56 589.71 452.2 592.2 458.62C592.39 459.1 592.86 459.47 593.63 460.41C594.31 458.12 594.88 456.49 595.271 454.82C595.921 452.02 596.251 449.14 597.061 446.39C598.15 442.68 598.64 438.91 599.07 435.09C599.39 432.24 599.74 429.34 600.62 426.63C602.36 421.27 603.34 415.8 603.95 410.23C604.57 404.51 605.14 398.78 606 393.1C607.23 384.89 608.7 376.72 610.07 368.54C610.54 365.71 610.98 362.87 611.51 360.05C612.15 356.6 612.991 353.18 613.521 349.71C614.051 346.24 614.13 342.7 614.73 339.25C615.17 336.72 615.1 334.56 613.26 332.57C612.74 332.01 612.76 330.96 612.39 329.61C617.77 329.9 622.79 330.69 627.5 329.021C632.08 327.401 639.08 324.69 642.88 321L650.45 328.22ZM643.594 688.151C643.354 687.522 642.944 687.072 641.854 687.462C641.085 689.782 641.624 692.342 641.944 694.752C642.374 698.032 641.944 701.131 640.904 704.161C639.604 707.921 637.984 711.582 636.654 715.332C635.864 717.572 634.955 719.881 634.805 722.201C634.485 727.131 634.484 732.102 634.634 737.042C634.804 742.682 634.634 748.212 632.435 753.521C631.705 755.291 631.094 757.131 630.664 758.991C630.244 760.831 629.974 762.742 629.904 764.632C629.824 766.702 630.124 768.782 630.124 770.852C630.144 777.461 633.124 782.821 637.154 787.741C637.394 788.031 637.963 788.051 638.761 788.32C638.762 788.331 638.764 788.341 638.765 788.352V788.321L638.761 788.32C638.655 787.325 638.701 786.545 638.464 785.872C637.994 784.522 637.294 783.242 636.814 781.892L636.721 781.632C635.521 778.268 634.319 774.898 634.124 771.262C633.874 766.512 635.074 762.102 636.944 757.812C638.954 753.232 640.074 748.471 639.904 743.401C639.744 738.461 639.754 733.501 639.864 728.562C639.904 726.502 640.354 724.451 640.704 722.411C641.324 718.771 642.595 715.322 644.015 711.932C647.365 703.942 646.604 696.031 643.594 688.151ZM677.784 740.021L676.874 740.191C676.934 741.081 676.824 742.032 677.094 742.842C678.054 745.732 679.214 748.572 681.164 750.922C684.224 754.602 687.414 758.172 690.654 761.691C695.494 766.931 701.724 770.252 707.844 773.682C710.334 775.072 712.944 776.391 715.664 777.241C720.824 778.861 726.064 780.232 731.324 781.502L731.751 781.604C736.266 782.689 740.748 783.765 744.994 785.762C746.994 786.702 749.215 787.162 751.354 787.792C751.584 787.861 751.925 787.591 752.395 787.411C752.075 786.861 751.894 786.182 751.444 785.832C749.574 784.352 747.744 782.742 745.674 781.602C742.324 779.752 738.844 778.132 735.344 776.602C732.574 775.382 729.724 774.372 726.634 774.142C725.214 774.042 723.804 773.632 722.435 773.212C714.775 770.862 707.554 767.472 700.704 763.372C698.124 761.832 695.794 759.822 693.544 757.802C690.704 755.252 688.114 752.412 685.314 749.802C682.955 747.602 681.114 745.012 679.314 742.372C678.784 741.602 678.294 740.802 677.784 740.012V740.021ZM630.384 584.622C630.034 588.362 630.085 591.482 630.515 594.622C631.145 599.162 630.524 603.582 628.704 607.752C626.014 613.922 622.554 619.682 618.574 625.102C616.194 628.341 614.144 631.711 612.374 635.321C610.124 639.911 608.584 644.792 606.004 649.252C602.394 655.482 599.444 662.041 597.424 668.991C596.174 673.281 594.855 677.562 593.435 681.802C590.795 689.672 588.104 697.522 585.324 705.352C584.584 707.442 583.564 709.461 582.464 711.401C577.984 719.341 573.864 727.462 570.254 735.832C567.934 741.212 564.254 745.622 559.954 749.472C553.894 754.912 547.555 760.052 541.555 765.562C539.285 767.651 536.884 769.382 534.214 770.842C530.864 772.672 527.574 774.572 524.424 776.802C520.804 779.362 516.714 781.212 512.204 782.082C508.494 782.802 504.725 783.582 501.475 786.582L501.484 786.592C502.364 786.652 503.264 786.871 504.114 786.741C507.114 786.281 510.084 785.652 513.074 785.172C515.944 784.712 518.634 783.872 521.204 782.462C523.294 781.312 525.475 780.172 527.765 779.592C532.534 778.382 536.624 776.051 540.424 773.031C544.044 770.151 547.634 767.211 551.384 764.481C558.154 759.561 563.605 753.242 569.645 747.552C570.444 746.792 571.114 745.852 571.674 744.892L571.881 744.536C575.113 738.985 578.348 733.427 579.954 727.132C580.964 723.182 582.824 719.752 585.084 716.392C589.094 710.412 592.504 704.102 594.284 697.012C595.834 690.822 597.724 684.711 599.364 678.531C601.794 669.371 605.904 660.861 609.384 652.111C609.734 651.221 610.174 650.352 610.694 649.552C613.924 644.592 616.565 639.322 619.305 634.082C623.145 626.732 627.415 619.602 631.435 612.342C632.355 610.682 633.254 608.922 633.704 607.102C635.194 601.082 634.684 595.052 633.364 589.062C633.124 587.992 632.624 586.942 632.104 585.972C631.865 585.532 631.264 585.282 630.384 584.622ZM483.18 375.71C482.6 379.69 482.1 382.67 481.74 385.66C481.32 389.15 481.09 392.66 480.63 396.15C480.47 397.38 479.93 398.59 479.43 399.74C479.11 400.48 478.489 401.03 477.31 400.57C477.25 399.58 477.09 398.49 477.12 397.41C477.26 392.24 475.19 387.76 472.8 383.39C471.99 381.92 470.67 380.91 469.04 380.69C467.78 380.52 466.55 381 465.46 382.33C465.12 391.66 462.95 401.13 464.55 410.75C464.68 411.53 464.65 412.34 464.67 413.14C464.92 423.2 465.18 433.26 465.41 443.32C465.43 444.27 465.439 445.26 465.229 446.18C464.149 450.9 464.379 455.64 464.479 460.45C464.689 470.51 465.309 480.58 464.27 490.64C463.86 494.63 464.53 498.59 465.36 502.45C468.72 505.25 472.44 507.01 476.61 507.7C479.59 508.19 482.62 508.43 485.62 508.75C489.58 509.18 493.57 509.43 497.51 510.03C500.36 510.46 503.08 511.53 505.34 513.43C509.62 517.04 513.85 520.72 517.06 525.37C520.13 529.8 524.17 533.071 528.76 535.771C532.64 538.05 536 540.82 538.68 544.59C541.16 548.08 544.221 551.19 547.271 554.23C549.67 556.62 552.64 558.09 556.13 558.6C560.11 559.18 563.99 560.58 567.23 562.86C572.18 566.34 577.21 569.71 581.89 573.62C587.3 578.14 590.46 583.9 592.42 590.4C594.22 596.37 595.28 602.51 595.68 608.76C595.82 610.92 595.83 613.17 597.22 615.21C599.1 608.66 598.68 601.92 599.19 595.26C599.28 594.03 598.85 592.74 598.54 591.5C598.11 589.8 597.56 588.12 597.09 586.43C595.9 582.15 593.64 578.56 590.26 575.66C585.29 571.4 580.62 566.77 574.89 563.47C573.93 562.91 573.02 562.22 572.2 561.47C568.64 558.16 564.48 555.89 559.98 554.12C553.711 551.64 548.71 547.7 545.38 541.61C543.79 538.7 541.58 536.05 539.32 533.6C534.76 528.68 529.51 524.5 524.3 520.29C522.2 518.59 520.159 516.79 518.27 514.86C516.37 512.93 514.66 510.81 512.93 508.71C511.65 507.15 510.04 506.14 508.1 505.83C504.02 505.17 499.929 504.45 495.81 504.09C490.89 503.66 485.93 503.61 480.99 503.34C480.27 503.3 479.35 503.44 478.85 502.23C479.14 501.85 479.41 501.27 479.86 500.93C482.32 499.1 483.64 496.61 484.05 493.65C484.4 491.13 484.83 488.57 484.76 486.04C484.55 477.73 484.05 469.43 483.84 461.13C483.75 457.47 483.88 453.77 484.29 450.13C484.59 447.4 484.67 444.72 484.29 442.021C483.94 439.491 483.35 436.96 483.29 434.42L483.283 434.147C483.145 428.817 483.006 423.46 483.399 418.16C483.749 413.4 485.08 408.73 484.57 403.88C484.44 402.64 484.73 401.33 484.92 400.07C486.04 392.88 485.32 385.72 484.57 378.57C484.5 377.89 483.95 377.26 483.18 375.71ZM633.851 439.55C632.841 439.4 631.72 438.96 630.7 439.14C626.65 439.84 622.53 440.23 618.5 441.39C618.26 442.31 618.01 443.06 617.88 443.83C617.21 447.93 616.65 452.04 615.89 456.12C615.01 460.83 613.98 465.51 612.98 470.19C612.271 473.53 612.26 476.82 613.17 480.14C614.18 483.85 615.62 487.37 617.44 490.75C618.02 491.83 618.511 492.97 619.021 494.05C617.241 495.3 615.68 494.62 614.14 494.42C611.19 494.03 609.34 494.34 606.76 495.62C606.99 496.33 607.15 497.11 607.49 497.8C608.86 500.67 610.27 503.53 611.7 506.38C612.06 507.09 612.49 507.77 612.93 508.44C614.57 510.98 616.04 513.671 617.93 516.021C620.87 519.68 622.05 523.92 622.59 528.4C622.85 530.52 623.53 532.36 624.66 534.17C625.83 536.04 626.651 538.14 627.521 540.18C628.081 541.49 628.44 542.881 629.15 545.021V545.03C630.25 544.1 630.93 543.7 631.37 543.12C634.67 538.78 637.23 534.01 639.36 529C641.11 524.88 642.601 520.51 646.061 517.51C649.91 514.17 654.02 511.12 658.17 508.16C661.13 506.05 663.57 503.73 664.22 499.79C661.04 497.78 657.64 496.7 653.88 496.67C650.85 496.65 647.77 496.78 644.79 496.34C641.89 495.91 639.13 495.8 636.28 496.6C634.19 497.19 632.23 496.72 630.46 494.88C631.32 493.61 632.11 492.46 632.88 491.29C636.05 486.48 637.741 481.37 637.101 475.45C636.501 469.91 636.57 464.3 636.15 458.73C635.71 452.841 635.04 446.96 634.45 441.08C634.4 440.64 634.121 440.22 633.851 439.55ZM533.101 499.021C530.991 498.541 529.06 499.15 526.69 499.79C529.13 502.87 530.94 506.09 533.7 508.45C536.96 511.24 540.56 513.641 543.96 516.271C545.66 517.59 547.46 518.45 549.66 518.39C551.83 518.34 553.67 519.18 555.39 520.47C557.43 522 559.59 523.37 561.64 524.9C563.83 526.54 566.071 527.98 568.811 528.59C569.994 528.852 571.122 529.473 572.202 530.066L572.3 530.12C575.65 531.96 578.97 533.86 582.3 535.75C584.385 536.937 586.611 537.418 589.343 537.391C589.345 537.397 589.348 537.404 589.351 537.41L589.36 537.39C589.355 537.39 589.349 537.391 589.343 537.391C588.481 535.144 586.955 534.007 585.43 532.93C579.26 528.58 574.15 523.07 568.86 517.78C567.24 516.16 565.62 514.66 563.44 513.99C559.65 512.82 556.64 510.61 554.04 507.66C551.92 505.26 549.45 503.35 546.46 501.95C542.93 500.3 539.45 498.92 535.47 499.26C534.69 499.33 533.87 499.2 533.101 499.021ZM866.89 416.66C865.9 414.86 863.95 413.8 862.6 414.25C860.67 414.88 859.22 416.05 858.9 418.22C858.88 418.38 858.85 418.54 858.85 418.7C858.67 422.35 858.11 426.02 860.76 429.22C861.94 430.65 862.03 432.38 860.81 434.04C860.17 433.9 859.63 433.93 859.29 433.68C856.97 431.99 854.61 430.35 852.43 428.5C847.53 424.34 841.83 422.83 835.561 423.02C835.291 423.02 835.02 423.33 834.4 423.71V423.69C833.87 426.24 833.831 429.091 834.021 431.94C834.63 441.06 834.21 450.16 833.7 459.26C833.64 460.37 833.51 461.51 833.17 462.56C832 466.11 831.871 469.76 831.811 473.45C831.771 475.84 831.481 478.23 831.351 480.62C831.091 485.25 830.62 489.88 830.71 494.51C830.78 497.9 830.51 501.19 830.01 504.51C828.85 512.17 824.33 516.73 817.07 518.87C815.69 519.28 814.33 519.73 812.99 520.24C806.46 522.72 800.48 522.01 795.18 517.25C794.23 516.4 793.38 515.41 791.95 515.479L791.923 515.495C785.36 519.27 785.289 519.311 777.54 519.69C773.92 519.87 770.72 521.15 767.68 523.03C765.24 524.53 762.71 525.89 760.24 527.34C759.14 527.98 758.05 528.65 757.04 529.42C756.64 529.73 756.45 530.33 755.87 531.3C757.22 531.18 758 531.19 758.74 531.03C762.17 530.28 765.51 529.28 768.8 527.97C776.09 525.06 783.55 523.99 791.15 527.07C793.21 527.91 795.39 528.48 797.51 529.17C800.49 530.13 803.53 529.39 806.53 529.55C810.43 529.77 813.71 528.49 816.89 526.51C818.79 525.33 821.02 524.48 822.14 522.45C823.82 519.4 826.391 517.35 829.061 515.31C830.32 514.35 831.35 513.08 832.58 512.07C834.95 510.12 835.7 507.69 834.88 504.8C833.83 501.11 834.371 497.53 835.351 493.94C835.561 493.17 835.671 492.37 835.771 491.58C836.5 485.48 839.57 480.43 843.12 475.68C845.6 472.36 848.28 469.15 851.16 466.18C855.31 461.88 858.6 456.999 861.51 451.85L861.694 451.523C864.294 446.912 866.899 442.29 868.56 437.2C869.32 434.88 869.65 432.56 869.44 430.13C869.29 428.39 869.29 426.63 869.22 424.88C869.11 421.95 868.3 419.2 866.89 416.66ZM917.39 486.9C916.66 485.9 915.7 484.94 913.84 485.43C913.79 486.58 913.54 487.82 913.72 489C914.74 495.64 915.2 502.32 915.36 509.03C915.54 516.349 919.559 521.059 925.218 524.549C925.215 524.549 925.212 524.549 925.21 524.55H925.22L925.218 524.549C928.182 523.897 929.24 522.008 929.63 519.66C930.16 516.49 930.25 513.29 929.63 510.12C928.95 506.67 928.08 503.26 927.55 499.78C927.14 497.06 925.86 494.96 923.78 493.33C921.37 491.45 919.2 489.38 917.39 486.9ZM565.29 435.33C564.78 435.62 564.401 435.71 564.28 435.93C563.52 437.33 562.65 438.7 562.12 440.19C560.62 444.39 559.3 448.66 557.83 452.88C556.31 457.23 554.04 461.311 553.62 466.061C553.47 467.75 552.43 469.35 551.87 471.01C550.35 475.53 549.26 480.17 548.23 484.63C550.27 487.9 552.76 490.32 555.71 492.33C556.88 493.13 558.05 494.05 558.92 495.15C561.84 498.86 565.6 500.95 570.24 501.65C571.33 501.81 572.54 502.02 573.41 502.63C575.67 504.2 578.141 504.48 580.73 504.271C583.33 504.061 585.65 504.901 587.11 506.9C589.21 509.79 592.091 511.8 594.48 514.33C596.23 516.17 597.58 518.38 599.17 520.38C599.71 521.07 600.071 522.15 601.521 521.84C601.94 520.01 601.71 518.18 601.24 516.32C599.91 511.08 599.03 505.66 595.16 501.46C594.74 501.01 594.6 500.32 594.28 499.76C593.09 497.7 591.88 495.65 590.66 493.57C587.77 493.19 585.09 493.51 582.41 493.78C578.76 494.15 575.1 494.48 571.44 494.72C570.78 494.76 570.09 494.26 569.41 494.01L569.4 494C569.83 491.86 571.521 491.27 572.73 490.41C574.94 488.85 575.87 486.83 575.66 484.26C575.42 481.24 575.23 478.19 574.68 475.21C572.86 465.31 570.95 455.43 568.95 445.57C568.23 442.01 566.84 438.64 565.29 435.33ZM347.36 444.25C344.55 445.83 341.39 447.351 339.03 450.021C337.89 451.31 336.74 452.741 336.11 454.311C334.48 458.32 333.32 462.54 333.39 466.88C333.48 472.45 334 478.01 334.34 483.67V483.68C335.09 483.84 335.28 483.95 335.38 483.89C343.48 479.59 348.11 472.95 348.45 463.69C348.66 457.951 348.51 452.19 348.5 446.44C348.5 445.7 348.75 444.81 347.36 444.25ZM528.4 348.03C526.28 350.71 526.18 350.7 525.97 353.04C525.48 358.54 526 363.87 528.97 368.74C529.54 369.67 529.93 370.74 530.24 371.79C530.5 372.7 529.18 373.79 528.41 373.32C527.21 372.57 526 371.76 524.99 370.771C523.7 369.511 522.32 368.31 520.54 368.12C513.94 367.42 507.91 368.67 502.97 373.63C502.92 380.33 502.81 386.88 502.84 393.42C502.85 396.29 503.11 399.16 503.36 402.03C503.44 402.92 503.86 403.77 504.22 404.96C505.66 404.49 506.87 404.18 508.01 403.71C509.19 403.23 510.34 402.66 511.43 402C512.51 401.34 513.58 400.61 514.51 399.75C515.57 398.79 516.55 397.71 517.43 396.58C518.21 395.58 518.77 394.41 519.49 393.36C520.18 392.34 520.02 390.81 521.65 390.03C522.001 390.39 522.71 390.8 522.71 391.2C522.69 394.06 522.93 397 522.34 399.76C520.49 408.37 520.701 416.89 522.601 425.44C522.941 426.96 523.49 428.511 522.71 430.19C522.25 430.13 521.66 430.22 521.4 429.97C520.961 429.55 520.73 428.91 520.41 428.36C519.09 426.12 517.4 423.94 515.03 423.12C511.76 421.99 508.23 421.7 504.58 422.85C504.43 424.44 504.239 425.85 504.189 427.26C504.049 431.26 503.59 435.2 502.99 439.16C502.4 443.08 502.2 447.15 502.54 451.09C503.32 460.35 503.43 469.59 502.97 478.86C502.91 480.1 503.06 481.34 503.1 482.38C503.509 482.66 503.63 482.79 503.77 482.82C504.07 482.9 504.4 483.02 504.7 482.98C511.68 482.16 516.92 478.71 520.36 472.55L520.5 472.301C521.544 470.433 522.59 468.559 523.72 466.75C523.97 466.34 524.651 466.21 525.771 465.61C525.561 471.306 524.053 476.242 524.17 481.587C524.154 481.588 524.137 481.589 524.12 481.59L524.17 481.6C524.17 481.595 524.17 481.591 524.17 481.587C526.151 481.47 526.816 480.302 527.49 479.29C529.01 477.03 530.08 474.56 530.84 471.91L531.182 470.716C533.567 462.373 535.955 454.025 538.57 445.74C540.15 440.72 542.21 435.86 543.99 430.91C544.69 428.96 545.461 426.99 545.771 424.96C546.161 422.38 547.01 420.03 548.14 417.72C550.04 413.82 551.39 409.75 552.09 405.45C552.36 403.82 552.391 402.3 551.771 400.76C549.291 394.7 546.8 388.65 544.36 382.58C543.35 380.06 542.361 377.53 541.521 374.96C540.281 371.17 539.23 367.31 538 363.521C536.56 359.081 534.301 355.04 531.851 351.09C531.031 349.76 530.18 348.33 528.4 348.03ZM809.49 394.19C808.58 392.75 807.28 392.45 805.75 392.96C804.33 393.43 803.111 394.23 802.48 395.6C801.891 396.89 801.44 398.28 801.09 399.66C799.94 404.16 799.69 408.79 799.05 413.37C798.34 418.44 797.591 423.49 797.351 428.6C797.151 432.91 797.16 437.23 797.11 441.55C797.11 442.01 797.33 442.47 797.68 443.87L797.69 443.88C800.8 438.53 802.81 433.76 803.13 428.41C803.24 426.65 803.26 424.89 803.3 423.13C803.43 417.22 805.69 411.94 808.2 406.75C808.55 406.02 809.21 405.52 810.39 406.05C810.39 406.85 810.631 407.85 810.351 408.66C809.361 411.46 809.53 414.3 809.57 417.19C809.66 424.54 809.75 431.91 809.41 439.25C809.1 445.96 808.22 452.71 805.65 458.96C803.72 463.65 803.25 468.55 802.45 473.42C802.26 474.61 802.56 475.88 802.63 476.94C804.77 478.06 806.34 477.44 807.89 476.46C809.4 475.51 810.85 474.56 811.15 472.57C811.32 471.47 811.65 470.39 811.9 469.3C814.03 460.02 813.85 450.57 813.96 441.14C814.02 435.71 813.641 430.219 814.271 424.85C815.28 416.27 814.25 407.94 812.32 399.67C811.86 397.72 810.58 395.93 809.49 394.19ZM624.8 388.64C623.44 393.6 623.06 398.37 622.54 403.1C622.01 407.92 620.38 412.661 621.04 417.771C623.7 418.021 626.03 418.16 628.61 417.48H628.601C628.601 413.181 628.84 409.33 628.54 405.53C628.18 400.92 627.41 396.35 626.73 391.771C626.56 390.641 626.21 389.47 624.8 388.64Z" fill="#4A332B"/>
</g>
<g filter="url(#filter5_g_36_195)">
<path d="M267.625 603.051C267.595 603.071 268.135 602.731 268.665 602.361L264.445 596.011C261.995 594.371 257.165 591.151 257.165 591.151C259.811 588.339 268.726 579.831 268.726 579.831L273.496 570.711C272.546 565.784 269.885 556.421 269.885 556.421L276.006 555.911L279.915 544.741L281.956 537.531L284.435 539.191L293.536 543.841L298.565 545.321C298.565 545.321 305.395 547.181 310.875 543.121C311.305 541.811 312.216 539.101 312.216 539.101C312.216 539.101 313.386 527.491 309.746 522.371C308.276 520.291 306.565 518.381 305.615 515.701C306.045 514.831 306.406 513.751 307.046 512.881C309.566 509.441 309.206 505.631 308.486 501.821C308.296 500.771 307.666 499.701 306.956 498.891C303.385 494.841 303.596 490.521 305.796 485.991C306.006 485.561 306.236 485.141 306.466 484.721C309.576 479.141 309.705 473.501 306.855 467.781C306.285 466.641 304.5 455 304.5 455L300 447L302.5 445L297.5 442.049L303.5 439.828L308.5 442.5L318.5 433.5C318.5 433.5 323.335 429.061 324.345 425.241C328.065 425.841 331.316 424.791 334.506 423.191C337.666 421.611 339.296 418.561 341.806 416.071C345.056 416.411 347.836 415.131 350.466 413.091C354.987 409.574 361.268 407.12 366.206 404.121L362.556 398.101C362.556 398.101 364.806 397.101 365.976 396.681L366.153 396.618C368.203 395.89 370.235 395.168 371.935 393.701C372.505 393.211 373.296 392.921 374.036 392.681C376.616 391.861 379.215 391.101 382.165 390.211C384.095 390.591 386.436 391.031 388.766 391.511C392.116 392.211 394.755 390.921 396.835 388.441C398.265 386.741 399.435 384.811 400.715 382.981C401.255 382.211 401.795 381.451 402.375 380.611L402.385 380.591C403.145 380.831 403.775 380.951 404.325 381.231C407.045 382.641 409.745 382.761 412.645 381.641C415.945 380.361 423.806 379.571 423.806 379.571L431.526 374.511L431.506 374.491C432.216 370.701 433.285 367.901 434.455 365.161C435.145 363.571 436.595 362.821 438.375 362.981C439.325 363.061 440.275 363.311 441.225 363.341C442.815 363.391 444.465 363.611 445.965 363.251C449.325 362.441 452.445 360.851 455.905 360.191C457.125 359.961 458.355 358.651 459.135 357.531C460.565 355.461 462.425 354.651 464.825 354.621C468.145 354.591 470.965 353.241 473.625 351.301C476.705 349.051 479.846 346.901 482.006 343.411C482.926 344.031 483.505 344.291 483.895 344.721C486.475 347.621 489.865 348.381 493.455 348.091C497.515 347.761 501.126 346.351 503.986 343.101C506.336 340.431 509.445 338.751 513.065 338.181C515.725 337.771 521.006 336.861 521.006 336.861L521.5 340L533.345 335.301C533.345 335.301 538.675 334.641 540.945 332.881C542.365 331.781 544.165 331.581 545.945 331.481C549.125 331.291 552.316 331.041 555.506 330.861C558.076 330.711 560.596 330.891 563.026 331.931C565.436 332.961 567.966 332.981 570.556 332.601C573.026 332.241 575.146 331.391 576.766 329.401C577.886 328.031 579.185 326.901 580.885 326.211C583.215 325.261 585.466 324.841 587.786 326.161C589.516 327.151 591.315 327.321 593.325 326.951C594.646 326.706 596.101 326.979 597.466 327.234L597.556 327.251C599.506 327.611 601.355 327.501 603.185 326.731C605.095 325.921 607.005 325.091 608.945 324.351C611.705 323.301 614.086 321.821 615.506 319.091C615.796 318.531 616.265 318.061 616.645 317.551C617.955 315.771 619.716 315.381 621.746 315.971C622.516 316.191 623.245 316.541 623.965 316.871C627.105 318.321 630.145 318.191 633.135 316.421C636.811 314.249 639.207 320.707 641.205 323.451L648 332.041L664.155 337.831C671.5 329 689 329 689 329C692.93 325.91 696.056 324.801 700.056 327.931C702.226 329.631 704.496 330.991 707.036 332.041C708.476 332.641 709.765 333.651 711.065 334.551C711.985 335.191 712.725 336.091 713.675 336.651C716.945 338.571 720.345 339.811 724.125 338.061C725.615 337.371 727.136 337.011 728.766 337.611C731.316 338.561 733.485 337.801 735.335 335.981C737.315 334.031 739.796 332.941 742.256 331.771C744.602 330.651 746.418 331.684 748.35 332.782L748.506 332.871C750.436 333.961 750.895 337.821 750.895 337.821C750.895 337.821 759 351.5 773.986 358.221C776.296 358.071 778.656 358.261 780.986 358.651C783.856 359.141 786.345 358.371 788.595 356.601C789.605 355.811 790.605 355.001 791.655 354.281L791.747 354.217C792.373 353.783 793.06 353.306 793.766 353.211L794.069 353.17C797.128 352.764 800.187 352.357 803.256 352.231C805.536 352.131 807.525 353.031 809.315 354.651C813.705 358.621 814.306 358.771 820.226 359.311C822.766 361.481 825.065 363.681 827.615 365.551C830.045 367.331 832.655 368.931 835.345 370.311C837.125 371.221 838.605 372.261 839.585 374.011C839.895 374.571 840.235 375.121 840.645 375.611C843.355 378.851 846.695 380.781 851.075 380.381C852.185 380.281 853.345 380.261 854.395 379.941C857.755 378.921 861.005 378.981 864.195 380.531C864.765 380.811 865.416 381.121 866.016 381.101C871.436 380.941 874.415 385.181 878.235 387.871C878.965 388.381 879.365 389.391 879.835 390.221C882.125 394.271 884.836 398.011 888.016 401.401C888.446 401.871 888.846 402.431 889.386 402.731C892.136 404.261 893.675 406.921 895.715 409.141C899.085 412.801 902.965 416.011 908.355 416.091C910.085 416.121 911.835 415.821 913.545 415.491C915.265 415.171 916.916 414.531 918.636 414.211C919.706 414.021 920.935 413.861 921.915 414.211C924.085 414.981 926.285 415.141 928.525 415.061C930.415 414.991 931.995 415.691 933.195 417.091C935.435 419.721 938.206 421.381 941.426 422.631C943.606 423.481 945.486 425.141 947.456 426.491C947.976 426.841 948.525 427.341 948.735 427.891C950.105 431.421 952.096 434.761 952.156 438.701C952.166 439.181 952.025 439.721 952.195 440.131C953.505 443.391 952.385 446.721 952.565 450.001C952.645 451.341 952.336 452.501 951.096 453.311C949.016 454.661 948.876 456.651 949.406 458.831C949.676 459.921 950.025 460.991 950.195 462.091C950.275 462.601 949.775 464.141 949.775 464.141L948 462.5L948.5 478C948.5 478 949.046 478.901 949.886 480.971C951.106 483.971 951.795 487.091 951.485 490.331C951.075 494.581 951.625 498.621 953.625 502.431C953.995 503.131 954.345 503.911 954.415 504.681C954.755 508.391 955.906 511.881 957.326 515.271C958.836 518.861 957.526 522.191 956.726 525.571C956.356 527.111 955.815 528.651 955.145 530.091C953.045 534.631 953.205 539.421 953.445 544.221C953.585 547.071 954.595 549.381 957.275 550.961C959.305 552.151 961.045 553.871 962.855 555.431C963.965 556.391 964.726 559.401 964.726 559.401V559.411L974 565C979.5 564 980.796 566.141 982.306 566.971C988.126 570.161 994.026 569.241 999.866 567.011C1001.35 566.451 1002.7 565.551 1004.12 564.821C1005.37 564.181 1006.52 564.311 1007.71 565.111C1009.56 566.351 1011.38 567.701 1013.39 568.611C1015.99 569.791 1018.76 570.581 1021.7 571.631C1022.21 572.941 1022.78 574.401 1023.4 576.001C1023.01 577.081 1022.6 578.221 1022.18 579.369L1021.99 579.911V587.5C1021.99 587.5 1026.03 590.101 1026.98 590.651C1027.73 591.091 1028.38 591.681 1029.3 592.371L1029.15 592.496C1027.16 594.213 1025.44 595.702 1023.47 597.391C1022.81 597.061 1021.93 596.771 1021.21 596.241C1015.4 591.961 1002.53 593.951 1002.53 593.951L999.5 594.5L996 597.391L990.5 600C990.5 600 991.885 601.711 992.235 603.341C991.705 606.861 991.575 609.821 991.215 613.301C991.075 614.681 991.345 616.201 991.795 617.521C992.565 619.781 993.655 621.931 994.565 624.141C995.555 626.561 997.446 628.261 999.846 628.591C1003.02 629.021 1005.85 630.821 1009.15 630.581C1010.53 630.481 1011.53 631.281 1012.09 632.621C1012.71 634.101 1013.42 635.531 1014.12 636.971C1015.67 640.131 1018.2 642.291 1021.33 643.731C1026.9 646.301 1032.14 644.561 1035.24 639.211C1035.72 638.391 1036.15 637.531 1036.72 636.781C1037.31 636.001 1038.68 636.021 1039.25 636.811C1039.9 637.711 1040.4 638.731 1041.02 639.651C1042.91 642.451 1045 645.131 1047.87 646.951C1052.56 649.911 1057.69 650.591 1063.07 649.171C1066 648.401 1068.94 647.671 1071.86 646.861C1074.82 646.041 1077.7 644.931 1079.65 642.431C1081.9 639.551 1084.42 636.801 1085.66 633.271C1086.54 630.781 1088.31 629.811 1090.77 629.741C1092.2 629.701 1093.65 629.771 1095.08 629.651C1101.25 629.121 1107.15 625.651 1108.5 619.231C1109.47 614.601 1112.21 611.621 1116.01 609.211C1117.89 608.021 1119.61 606.561 1121.28 605.091C1126.07 600.881 1127.03 595.311 1126.39 589.371C1125.89 584.681 1123.98 580.431 1121.45 576.481C1119.56 573.521 1117.61 570.581 1115.52 567.761C1113.44 564.951 1112.32 561.981 1112.53 558.411C1112.71 555.381 1112.46 552.331 1112.46 549.291C1112.46 546.451 1111.55 543.931 1109.83 541.731C1108.85 540.471 1107.83 539.161 1106.57 538.241C1103.29 535.861 1102.61 532.621 1103.06 528.901C1103.16 528.101 1103.31 527.321 1103.45 526.531C1104.54 520.291 1102.84 514.831 1098.85 510.011C1098.04 509.031 1097.1 508.141 1096.35 507.111C1095.9 506.491 1095.44 505.711 1095.42 504.981C1095.31 501.491 1095.12 497.981 1095.38 494.511C1095.78 489.141 1094.37 484.431 1091.24 480.111C1089.84 478.171 1088.53 476.151 1087.42 474.041C1084.02 467.601 1078.93 463.811 1071.51 463.481C1070.87 463.451 1070.22 463.451 1069.6 463.331C1065.88 462.641 1064.2 460.511 1064.47 456.621C1064.68 453.661 1064.46 450.861 1062.45 448.481C1061.22 447.011 1061.05 445.281 1061.26 443.491C1061.41 442.221 1061.83 440.981 1061.9 439.711C1062.02 437.491 1062.19 435.231 1061.93 433.041C1061.48 429.121 1059.36 426.191 1055.73 424.531C1053.41 423.471 1050.95 422.701 1048.63 421.641C1045.29 420.121 1044.21 417.081 1045.68 413.711C1045.87 413.271 1046.16 412.881 1046.39 412.461C1048.37 408.851 1047.44 405.321 1046.07 401.831C1044.84 398.691 1042.36 397.161 1039.14 396.621C1038.83 396.571 1038.52 396.481 1038.21 396.411C1036.17 395.951 1034.78 394.781 1034.17 392.741C1033.99 392.131 1033.77 391.531 1033.55 390.931C1032.54 388.221 1030.73 386.341 1027.93 385.451C1026.71 385.061 1025.47 384.701 1024.33 384.131C1022.91 383.421 1021.54 382.591 1020.24 381.681C1019.15 380.921 1018.4 379.791 1018.63 378.401C1019.11 375.541 1017.86 373.111 1016.76 370.761C1017.11 369.651 1017.36 368.721 1017.7 367.831C1019.17 363.911 1018.92 359.981 1017.8 356.051C1016.93 353.011 1015.25 350.541 1012.54 348.871C1011.18 348.041 1009.81 347.151 1008.32 346.651C1004.79 345.471 1002.58 343.331 1002.17 339.511C1002.07 338.571 1001.68 337.661 1001.37 336.751C1000.32 333.691 998.296 331.611 995.226 330.471C992.896 329.611 990.645 329.291 988.235 330.201C985.615 331.181 983.565 330.191 982.045 327.951C981.695 327.421 981.316 326.891 981.056 326.311C979.226 322.311 976.056 320.211 971.766 319.651C971.296 319.591 970.845 319.371 970.375 319.291C968.285 318.931 966.855 317.871 966.375 315.711C965.525 311.871 963.265 309.491 959.295 308.891C959.135 308.871 958.985 308.801 958.835 308.751C955.635 307.661 953.226 305.831 952.306 302.351C951.946 300.981 951.235 299.681 950.525 298.441C949.185 296.111 946.995 294.831 944.605 293.781C942.695 292.951 940.886 293.181 939.036 293.931C937.776 294.451 936.556 294.371 935.426 293.491C934.926 293.101 934.355 292.781 933.775 292.521C931.905 291.681 930.126 291.931 928.246 292.731C925.496 293.901 924.875 293.721 923.695 291.261C922.895 289.581 921.716 288.411 920.266 287.381C919.236 286.641 918.225 285.861 917.445 285.271C917.015 283.591 917.045 281.911 916.235 280.901C914.475 278.691 914.335 276.311 914.255 273.701C914.185 271.661 913.736 269.571 913.056 267.651C912.606 266.361 911.686 264.861 910.556 264.281C907.964 262.961 905.724 261.228 903.468 259.481L903.105 259.201C902.495 258.731 901.655 258.561 900.915 258.261C897.675 256.941 894.336 257.041 891.016 257.811C888.526 258.381 886.296 258.161 884.266 256.461C881.916 254.481 879.315 254.531 876.605 255.661C875.625 256.061 874.595 256.361 873.685 256.671C872.365 255.271 872.525 253.751 872.485 252.371C872.375 248.611 870.576 245.671 868.286 242.921C866.366 240.621 863.885 239.791 860.985 240.461C859.585 240.781 858.255 241.361 856.875 241.761C852.645 242.981 850.825 242.411 848.375 238.781C846.625 236.191 844.356 234.751 841.246 234.601C840.776 234.581 840.285 234.581 839.815 234.501C837.675 234.121 836.606 233.241 836.526 231.061C836.426 228.551 835.396 226.441 834.476 224.231C833.496 221.871 831.846 220.311 829.506 219.331C827.896 218.661 826.285 217.901 824.875 216.901C822.615 215.301 820.265 214.931 817.605 215.511C816.065 215.841 814.455 215.981 812.875 215.961C810.335 215.931 808.186 216.791 806.266 218.361C805.526 218.961 804.855 219.661 804.095 220.241C801.965 221.851 800.985 221.791 799.405 219.521C797.145 216.261 794.156 215.011 790.306 215.641C789.986 215.701 789.675 215.771 789.355 215.771C786.175 215.831 783.406 215.291 781.786 211.971C780.046 208.411 776.876 207.091 773.016 207.451C771.276 207.621 769.556 208.011 767.806 208.181C765.266 208.421 763.896 207.741 762.976 205.281C762.016 202.711 760.356 201.021 758.016 199.701C756.516 198.851 755.005 197.771 753.956 196.441C751.685 193.561 748.766 192.371 745.236 192.151C742.186 191.961 739.186 191.961 736.266 193.121C735.276 193.511 734.155 193.621 732.585 193.981C732.065 193.271 731.545 192.461 730.925 191.731C729.685 190.271 727.945 189.721 726.185 189.841C724.305 189.981 722.465 190.791 720.585 190.931C718.545 191.081 716.475 190.681 714.425 190.731C713.505 190.751 712.605 191.291 711.685 191.561C710.315 191.971 708.926 192.341 707.546 192.741C705.806 193.251 704.346 192.671 703.226 191.401C702.176 190.211 701.215 188.911 700.395 187.551C699.485 186.051 698.885 184.361 697.966 182.871C695.226 178.391 691.186 175.271 686.016 175.041C679.736 174.761 673.556 175.821 669.226 181.371C667.376 183.741 664.765 184.371 661.885 183.671C660.335 183.291 658.855 182.681 657.325 182.211C653.015 180.891 648.766 181.021 644.796 183.251C643.036 184.241 641.415 184.911 639.375 184.401C637.755 184.001 636.226 184.411 634.806 185.321C634.146 185.741 633.396 186.021 632.776 186.321C628.722 184.761 624.572 185.051 620.325 187.191C619.375 185.831 618.435 184.381 617.395 183.011C614.355 179.011 610.165 178.381 606.065 181.291C605.545 181.661 605.045 182.081 604.615 182.541C603.805 183.411 602.875 183.831 601.645 183.751C597.775 183.491 594.945 185.321 592.715 188.331C592.165 189.061 591.426 189.651 590.546 190.531C589.456 189.521 588.555 188.691 587.655 187.851C586.335 186.621 584.886 185.551 582.996 185.771C581.026 185.991 579.635 185.271 578.395 183.831C576.955 182.161 575.015 181.951 573.125 182.741C570.485 183.851 567.755 185.011 566.955 188.251C566.615 189.631 565.705 190.611 564.395 190.851C561.745 191.341 559.676 192.521 557.975 194.651C557.035 195.821 555.085 195.691 554.155 194.461L554.075 194.356C552.325 192.053 550.644 189.843 547.286 189.991C546.796 190.021 546.256 189.321 545.756 188.941C544.996 188.361 544.255 187.761 543.475 187.201C540.535 185.101 537.496 185.041 534.526 187.021C533.216 187.891 532.015 188.991 530.955 190.151C529.995 191.201 529.305 192.501 528.455 193.661C526.575 196.221 525.276 196.671 522.286 195.841C521.826 195.721 521.385 195.491 520.935 195.341C518.475 194.491 516.005 194.061 513.415 194.871C512.515 195.151 511.525 195.171 510.575 195.281C508.745 195.491 507.026 195.221 505.736 193.781C503.665 191.461 500.916 190.831 498.016 190.401C496.636 190.201 495.125 189.941 493.955 189.231C488.915 186.161 484.245 186.931 479.645 190.171C478.345 191.091 476.996 192.011 475.536 192.611C471.236 194.401 468.415 197.371 467.415 201.981C467.315 202.451 467.166 202.911 466.996 203.361C465.806 206.591 463.675 208.811 460.185 209.421C456.235 210.101 452.966 211.901 450.496 215.081C448.806 217.251 446.875 217.641 444.165 216.811C437.315 214.711 430.935 217.391 427.455 223.641C426.455 225.431 425.805 227.441 425.205 229.421C424.625 231.321 423.696 232.491 421.546 232.511C417.996 232.551 415.665 234.711 413.675 237.341C413.195 237.981 412.815 238.691 412.445 239.401C411.355 241.471 409.765 242.401 407.355 242.091C405.785 241.891 404.155 241.931 402.575 242.051C397.625 242.421 394.215 244.891 392.605 249.691C392.205 250.901 391.866 252.161 391.256 253.271C389.606 256.291 387.345 257.981 383.315 256.671C382.095 256.271 380.895 255.791 379.645 255.571C377.605 255.211 375.496 254.631 373.496 254.861C368.536 255.411 363.635 256.671 359.635 259.751C354.955 263.361 351.425 267.821 351.855 274.331C351.955 275.901 351.736 277.521 351.456 279.091C350.686 283.381 349.766 284.201 345.546 284.601C344.906 284.661 344.255 284.611 343.625 284.691C340.905 285.041 338.835 286.371 337.585 288.861C337.305 289.431 337.105 290.051 336.825 290.621C335.695 292.921 334.916 293.371 332.736 292.301C329.526 290.731 326.305 290.691 322.945 291.531C321.725 291.841 320.435 292.101 319.185 292.061C315.845 291.941 313.365 293.491 311.195 295.771C309.406 297.651 307.995 299.811 307.355 302.331C306.695 304.901 305.286 306.511 302.706 307.281C298.965 308.391 296.935 311.061 296.335 314.901C296.115 316.311 295.836 317.731 294.496 318.891C293.676 318.891 292.696 319.061 291.806 318.861C288.696 318.161 286.225 319.331 283.845 321.191C281.455 323.051 279.955 325.381 279.345 328.321C278.625 331.791 276.766 333.921 273.016 334.511C269.676 335.041 267.205 337.071 265.855 340.281C265.665 340.721 265.456 341.151 265.236 341.581C264.506 342.991 263.356 343.711 261.766 343.711C260.966 343.701 260.165 343.661 259.365 343.641C256.045 343.541 253.046 344.411 250.466 346.561L250.45 346.574C249.965 346.98 249.47 347.394 248.925 347.701C243.835 350.541 240.566 355.041 237.796 359.971C235.866 363.401 234.965 367.101 235.665 371.051C236.065 373.321 235.705 375.491 235.095 377.671C234.445 379.991 233.135 381.611 230.835 382.471C229.045 383.141 227.296 383.941 225.556 384.741C221.636 386.541 219.316 389.591 218.526 393.841C218.266 395.241 217.835 396.591 217.435 398.141C215.345 398.801 213.415 399.591 211.415 400.001C207.355 400.831 204.045 402.811 201.135 405.741C196.975 409.931 195.206 414.501 197.036 420.491C198.536 425.431 197.936 430.241 194.036 434.281C187.026 441.551 188.756 455.491 197.806 459.951C199.256 460.671 200.525 461.671 201.215 463.201C201.616 464.081 201.935 465.031 200.605 465.741C200.115 465.631 199.495 465.541 198.895 465.361C190.595 462.791 182.566 470.831 184.226 478.531C184.396 479.311 184.545 480.101 184.665 480.891C184.935 482.691 184.175 484.051 182.675 484.911C181.585 485.541 180.345 485.921 179.145 486.361C177.295 487.031 175.716 488.061 174.486 489.601C171.256 493.661 170.345 498.071 172.125 503.071C173.885 508.011 173.605 508.721 169.335 511.841C166.865 513.641 165.406 516.001 164.986 519.001C164.556 522.041 164.706 524.891 166.286 527.791C168.826 532.471 167.866 534.621 163.016 536.751C162.586 536.941 162.095 537.031 161.675 537.251C160.265 538.011 158.836 538.731 157.506 539.601C152.536 542.821 150.656 547.581 152.746 553.761C153.146 554.961 153.585 556.151 153.915 557.091C153.284 558.849 152.751 560.355 152.198 561.917L152.016 562.431C149.656 563.631 147.065 564.531 145.385 566.881C142.425 571.021 140.116 575.341 141.266 580.671C141.716 582.761 141.015 584.401 139.695 585.951C138.555 587.291 137.216 588.561 136.496 590.111C133.736 596.071 134.585 605.811 140.815 609.011C143.215 610.241 143.386 612.461 142.726 614.821C142.376 616.041 141.815 617.221 141.595 618.471C141.055 621.531 141.746 624.191 144.476 626.041C145.256 626.571 146.005 627.121 146.835 627.711C146.725 628.971 146.686 630.071 146.526 631.161C145.926 635.321 146.736 636.901 150.496 638.821C151.466 639.321 152.415 639.851 153.435 640.391C153.705 642.101 154.105 643.661 154.185 645.241C154.395 649.401 156.876 651.691 160.546 652.671C163.646 653.501 166.875 653.571 169.925 652.091C170.505 651.811 171.035 651.421 171.625 651.201C174.295 650.211 176.285 651.061 177.385 653.701C177.995 655.181 178.446 656.721 179.016 658.211C180.566 662.291 183.355 664.941 187.835 665.211C191.015 665.401 194.235 665.401 197.405 665.151C200.325 664.921 202.926 663.711 204.986 661.461C207.016 659.251 209.165 657.141 211.195 655.071C211.845 655.071 212.346 654.971 212.786 655.091C217.116 656.251 220.605 654.871 223.575 651.671C224.295 650.891 225.285 650.371 225.945 649.881C226.475 649.981 226.656 649.961 226.776 650.041C227.436 650.491 228.135 650.891 228.715 651.431C233.775 656.111 238.986 655.061 242.236 650.291C242.976 649.211 243.846 648.221 245.266 648.161C248.356 648.031 249.785 646.181 250.435 643.411C250.575 642.801 250.926 642.251 251.276 641.451C253.736 641.241 255.775 640.231 256.815 637.731C257.275 636.621 258.285 635.951 259.445 635.891C264.555 635.611 265.236 631.071 267.296 627.851C267.136 624.791 268.275 621.881 268.395 618.871C268.465 616.941 268.436 615.091 269.195 613.251C270.046 611.201 269.776 609.211 268.456 607.341C267.726 606.301 267.025 605.181 267.625 603.051Z" fill="#21513D"/>
</g>
<defs>
<filter id="filter0_g_36_195" x="12" y="0" width="1236" height="807" filterUnits="userSpaceOnUse" color-interpolation-filters="sRGB">
<feFlood flood-opacity="0" result="BackgroundImageFix"/>
<feBlend mode="normal" in="SourceGraphic" in2="BackgroundImageFix" result="shape"/>
<feTurbulence type="fractalNoise" baseFrequency="0.20000000298023224 0.20000000298023224" numOctaves="3" seed="6250" />
<feDisplacementMap in="shape" scale="2" xChannelSelector="R" yChannelSelector="G" result="displacedImage" width="100%" height="100%" />
<feMerge result="effect1_texture_36_195">
<feMergeNode in="displacedImage"/>
</feMerge>
</filter>
<filter id="filter1_g_36_195" x="727" y="616" width="380" height="191" filterUnits="userSpaceOnUse" color-interpolation-filters="sRGB">
<feFlood flood-opacity="0" result="BackgroundImageFix"/>
<feBlend mode="normal" in="SourceGraphic" in2="BackgroundImageFix" result="shape"/>
<feTurbulence type="fractalNoise" baseFrequency="0.20000000298023224 0.20000000298023224" numOctaves="3" seed="6250" />
<feDisplacementMap in="shape" scale="2" xChannelSelector="R" yChannelSelector="G" result="displacedImage" width="100%" height="100%" />
<feMerge result="effect1_texture_36_195">
<feMergeNode in="displacedImage"/>
</feMerge>
</filter>
<filter id="filter2_g_36_195" x="129" y="695" width="398.138" height="112" filterUnits="userSpaceOnUse" color-interpolation-filters="sRGB">
<feFlood flood-opacity="0" result="BackgroundImageFix"/>
<feBlend mode="normal" in="SourceGraphic" in2="BackgroundImageFix" result="shape"/>
<feTurbulence type="fractalNoise" baseFrequency="0.20000000298023224 0.20000000298023224" numOctaves="3" seed="6250" />
<feDisplacementMap in="shape" scale="2" xChannelSelector="R" yChannelSelector="G" result="displacedImage" width="100%" height="100%" />
<feMerge result="effect1_texture_36_195">
<feMergeNode in="displacedImage"/>
</feMerge>
</filter>
<filter id="filter3_g_36_195" x="287.39" y="646.31" width="177.46" height="40.3059" filterUnits="userSpaceOnUse" color-interpolation-filters="sRGB">
<feFlood flood-opacity="0" result="BackgroundImageFix"/>
<feBlend mode="normal" in="SourceGraphic" in2="BackgroundImageFix" result="shape"/>
<feTurbulence type="fractalNoise" baseFrequency="0.20000000298023224 0.20000000298023224" numOctaves="3" seed="3275" />
<feDisplacementMap in="shape" scale="2" xChannelSelector="R" yChannelSelector="G" result="displacedImage" width="100%" height="100%" />
<feMerge result="effect1_texture_36_195">
<feMergeNode in="displacedImage"/>
</feMerge>
</filter>
<filter id="filter4_g_36_195" x="261.5" y="320" width="764" height="518.53" filterUnits="userSpaceOnUse" color-interpolation-filters="sRGB">
<feFlood flood-opacity="0" result="BackgroundImageFix"/>
<feBlend mode="normal" in="SourceGraphic" in2="BackgroundImageFix" result="shape"/>
<feTurbulence type="fractalNoise" baseFrequency="0.20000000298023224 0.20000000298023224" numOctaves="3" seed="6250" />
<feDisplacementMap in="shape" scale="2" xChannelSelector="R" yChannelSelector="G" result="displacedImage" width="100%" height="100%" />
<feMerge result="effect1_texture_36_195">
<feMergeNode in="displacedImage"/>
</feMerge>
</filter>
<filter id="filter5_g_36_195" x="134" y="174" width="993.563" height="492.347" filterUnits="userSpaceOnUse" color-interpolation-filters="sRGB">
<feFlood flood-opacity="0" result="BackgroundImageFix"/>
<feBlend mode="normal" in="SourceGraphic" in2="BackgroundImageFix" result="shape"/>
<feTurbulence type="fractalNoise" baseFrequency="0.20000000298023224 0.20000000298023224" numOctaves="3" seed="6250" />
<feDisplacementMap in="shape" scale="2" xChannelSelector="R" yChannelSelector="G" result="displacedImage" width="100%" height="100%" />
<feMerge result="effect1_texture_36_195">
<feMergeNode in="displacedImage"/>
</feMerge>
</filter>
<radialGradient id="paint0_radial_36_195" cx="0" cy="0" r="1" gradientTransform="matrix(0 -860 654.181 -20.5002 629.819 861)" gradientUnits="userSpaceOnUse">
<stop offset="0.85" stop-color="#C2B64A"/>
<stop offset="1" stop-color="white" stop-opacity="0"/>
</radialGradient>
</defs>
</svg>
